<?xml version="1.0" encoding="UTF-8" standalone="no"?>
<svg
   xmlns:dc="http://purl.org/dc/elements/1.1/"
   xmlns:cc="http://creativecommons.org/ns#"
   xmlns:rdf="http://www.w3.org/1999/02/22-rdf-syntax-ns#"
   xmlns:svg="http://www.w3.org/2000/svg"
   xmlns="http://www.w3.org/2000/svg"
   xmlns:sodipodi="http://sodipodi.sourceforge.net/DTD/sodipodi-0.dtd"
   xmlns:inkscape="http://www.inkscape.org/namespaces/inkscape"
   viewBox="0 0 477.44843 495.99924"
   version="1.1"
   id="svg4"
   sodipodi:docname="cog.svg"
   width="477.44843"
   height="495.99924"
   inkscape:version="0.92.4 (5da689c313, 2019-01-14)">
  <metadata
     id="metadata10">
    <rdf:RDF>
      <cc:Work
         rdf:about="">
        <dc:format>image/svg+xml</dc:format>
        <dc:type
           rdf:resource="http://purl.org/dc/dcmitype/StillImage" />
        <dc:title></dc:title>
      </cc:Work>
    </rdf:RDF>
  </metadata>
  <defs
     id="defs8" />
  <sodipodi:namedview
     pagecolor="#ffffff"
     bordercolor="#666666"
     borderopacity="1"
     objecttolerance="10"
     gridtolerance="10"
     guidetolerance="10"
     inkscape:pageopacity="0"
     inkscape:pageshadow="2"
     inkscape:window-width="3840"
     inkscape:window-height="2054"
     id="namedview6"
     showgrid="false"
     inkscape:pagecheckerboard="true"
     fit-margin-top="0"
     fit-margin-left="0"
     fit-margin-right="0"
     fit-margin-bottom="0"
     inkscape:zoom="0.4609375"
     inkscape:cx="238.72421"
     inkscape:cy="247.99913"
     inkscape:window-x="-9"
     inkscape:window-y="-9"
     inkscape:window-maximized="1"
     inkscape:current-layer="svg4" />
  <path
     d="m 465.42021,291.27613 -32.61,-18.827 a 195.168,195.168 0 0 0 0,-48.899 l 32.61,-18.827 c 9.576,-5.528 14.195,-16.902 11.046,-27.501 -11.214,-37.749 -31.175,-71.728 -57.535,-99.595005 -7.634,-8.07 -19.817,-9.836 -29.437,-4.282 l -32.562,18.798 a 194.125,194.125 0 0 0 -42.339,-24.48 v -37.614 c 0,-11.13 -7.652,-20.804 -18.484,-23.367 -37.644,-8.909 -77.118,-8.91 -114.77,0 -10.831,2.563 -18.484,12.236 -18.484,23.367 v 37.614 a 194.101,194.101 0 0 0 -42.339,24.48 l -32.562002,-18.798 c -9.621,-5.554 -21.804,-3.788 -29.437,4.282 -26.36,27.867005 -46.321,61.847005 -57.53500042,99.595005 -3.14899998,10.599 1.47000002,21.972 11.04600042,27.501 l 32.61,18.827 a 195.168,195.168 0 0 0 0,48.899 l -32.61,18.827 c -9.5760004,5.528 -14.1950004,16.902 -11.04600042,27.501 11.21400042,37.748 31.17500042,71.728 57.53500042,99.595 7.634,8.07 19.817,9.836 29.437,4.283 l 32.562002,-18.798 a 194.08,194.08 0 0 0 42.339,24.479 v 37.614 c 0,11.13 7.652,20.804 18.484,23.367 37.645,8.909 77.118,8.91 114.77,0 10.831,-2.563 18.484,-12.236 18.484,-23.367 v -37.614 a 194.138,194.138 0 0 0 42.339,-24.479 l 32.562,18.798 c 9.62,5.554 21.803,3.788 29.437,-4.283 26.36,-27.867 46.321,-61.847 57.535,-99.595 3.149,-10.599 -1.47,-21.972 -11.046,-27.501 z m -65.479,100.461 -46.309,-26.74 c -26.988,23.071 -36.559,28.876 -71.039,41.059 v 53.479 a 217.145,217.145 0 0 1 -87.738,0 v -53.479 c -33.621,-11.879 -43.355,-17.395 -71.039,-41.059 l -46.309002,26.74 c -19.71,-22.09 -34.689,-47.989 -43.929,-75.958 l 46.329,-26.74 c -6.535,-35.417 -6.538,-46.644 0,-82.079 l -46.329,-26.74 c 9.24,-27.969 24.22,-53.869 43.929,-75.969 l 46.309002,26.76 c 27.377,-23.434 37.063,-29.065 71.039,-41.069005 v -53.478 a 216.79,216.79 0 0 1 87.738,0 v 53.479 c 33.978,12.005005 43.665,17.637005 71.039,41.069005 l 46.309,-26.76 c 19.709,22.099 34.689,47.999 43.929,75.969 l -46.329,26.74 c 6.536,35.426 6.538,46.644 0,82.079 l 46.329,26.74 c -9.24,27.968 -24.219,53.868 -43.929,75.957 z m -161.217,-239.737 c -52.935,0 -96,43.065 -96,96 0,52.935 43.065,96 96,96 52.935,0 96,-43.065 96,-96 0,-52.935 -43.065,-96 -96,-96 z m 0,160 c -35.29,0 -64,-28.71 -64,-64 0,-35.29 28.71,-64 64,-64 35.29,0 64,28.71 64,64 0,35.29 -28.71,64 -64,64 z"
     id="path2"
     inkscape:connector-curvature="0"
     style="fill:#ffffff;fill-opacity:1" />
</svg>
