<svg xmlns="http://www.w3.org/2000/svg" width="36.532" height="40.163" viewBox="0 0 36.532 40.163"><defs><style>.a{fill:rgba(255,255,255,0.7);}</style></defs><path class="a" d="M15.232,47.25,23,52.1l-7.763,4.85ZM36.532,36.3V67.86a4.124,4.124,0,0,1-3.914,4.3H3.914A4.124,4.124,0,0,1,0,67.86V36.3A4.124,4.124,0,0,1,3.914,32h28.7A4.124,4.124,0,0,1,36.532,36.3ZM33.107,52.109a47.267,47.267,0,0,0-.62-7.907,3.927,3.927,0,0,0-2.626-2.9c-2.308-.69-11.6-.69-11.6-.69s-9.288,0-11.6.69a3.927,3.927,0,0,0-2.626,2.9,47.209,47.209,0,0,0-.62,7.907,47.267,47.267,0,0,0,.62,7.907,3.863,3.863,0,0,0,2.626,2.86c2.308.681,11.6.681,11.6.681s9.288,0,11.6-.69a3.863,3.863,0,0,0,2.626-2.86,47.122,47.122,0,0,0,.62-7.9Z" transform="translate(0 -32)"/></svg>