<svg xmlns="http://www.w3.org/2000/svg" width="36.532" height="40.163" viewBox="0 0 36.532 40.163"><defs><style>.a{fill:rgba(255,255,255,0.7);}</style></defs><path class="a" d="M33.922,32H2.6A2.764,2.764,0,0,0,0,34.9V69.268a2.764,2.764,0,0,0,2.6,2.9H33.922a2.77,2.77,0,0,0,2.609-2.9V34.9A2.77,2.77,0,0,0,33.922,32ZM11.041,66.426H5.627V47.258h5.423V66.426ZM8.334,44.641a3.467,3.467,0,0,1,0-6.9,3.467,3.467,0,0,1,0,6.9Zm23,21.785H25.923V57.1c0-2.223-.041-5.083-2.813-5.083-2.821,0-3.254,2.421-3.254,4.922v9.485H14.442V47.258h5.194v2.618h.073a5.631,5.631,0,0,1,5.129-3.093c5.48,0,6.5,3.972,6.5,9.135Z" transform="translate(0 -32)"/></svg>