<svg xmlns="http://www.w3.org/2000/svg" width="36.532" height="40.163" viewBox="0 0 36.532 40.163"><defs><style>.a{fill:rgba(255,255,255,0.7);}</style></defs><path class="a" d="M32.618,32H3.914A4.124,4.124,0,0,0,0,36.3V67.86a4.124,4.124,0,0,0,3.914,4.3h28.7a4.124,4.124,0,0,0,3.914-4.3V36.3A4.124,4.124,0,0,0,32.618,32ZM28.63,46.236c.016.251.016.511.016.762,0,7.773-5.382,16.729-15.216,16.729a14.169,14.169,0,0,1-8.212-2.636,10.257,10.257,0,0,0,1.288.072,10.124,10.124,0,0,0,6.638-2.51,5.446,5.446,0,0,1-5-4.079,5.258,5.258,0,0,0,2.414-.108,5.771,5.771,0,0,1-4.281-5.773v-.072a4.985,4.985,0,0,0,2.414.744A6.043,6.043,0,0,1,6.312,44.47,6.254,6.254,0,0,1,7.037,41.5a14.781,14.781,0,0,0,11.025,6.15c-.758-3.989,1.957-7.226,5.219-7.226a5.117,5.117,0,0,1,3.906,1.856,9.922,9.922,0,0,0,3.392-1.416A5.8,5.8,0,0,1,28.231,44.1a9.9,9.9,0,0,0,3.082-.914A11.936,11.936,0,0,1,28.63,46.236Z" transform="translate(0 -32)"/></svg>