<svg xmlns="http://www.w3.org/2000/svg" width="36.532" height="40.163" viewBox="0 0 36.532 40.163"><defs><style>.a{fill:rgba(255,255,255,0.7);}</style></defs><path class="a" d="M32.618,32H3.914A4.123,4.123,0,0,0,0,36.3V67.86a4.123,4.123,0,0,0,3.914,4.3H15.106V58.509H9.969V52.082h5.137v-4.9c0-5.572,3.017-8.649,7.638-8.649a28.4,28.4,0,0,1,4.527.434v5.469h-2.55c-2.512,0-3.3,1.714-3.3,3.472v4.173h5.609l-.9,6.427H21.426V72.163H32.618a4.123,4.123,0,0,0,3.914-4.3V36.3A4.123,4.123,0,0,0,32.618,32Z" transform="translate(0 -32)"/></svg>