<svg xmlns="http://www.w3.org/2000/svg" width="36.532" height="40.163" viewBox="0 0 36.532 40.163"><defs><style>.a{fill:rgba(255,255,255,0.7);}</style></defs><path class="a" d="M18.266,47.3a4.8,4.8,0,0,0,0,9.564,4.8,4.8,0,0,0,0-9.564Zm10.169-3.676a4.645,4.645,0,0,0-2.48-2.726c-1.712-.743-5.79-.576-7.69-.576s-5.973-.173-7.69.576A4.645,4.645,0,0,0,8.1,43.624c-.675,1.883-.524,6.37-.524,8.457s-.151,6.569.528,8.458a4.645,4.645,0,0,0,2.48,2.726c1.712.743,5.79.576,7.69.576s5.972.173,7.69-.576a4.645,4.645,0,0,0,2.48-2.726c.681-1.883.524-6.37.524-8.457s.157-6.568-.524-8.457ZM18.266,59.433c-3.693,0-6.687-3.291-6.687-7.351s2.994-7.351,6.687-7.351,6.687,3.291,6.687,7.351A7.729,7.729,0,0,1,23,57.282,6.387,6.387,0,0,1,18.266,59.433Zm6.962-13.3a1.724,1.724,0,1,1,1.56-1.716,1.8,1.8,0,0,1-.454,1.215,1.49,1.49,0,0,1-1.1.5ZM32.618,32H3.914A4.123,4.123,0,0,0,0,36.3V67.86a4.123,4.123,0,0,0,3.914,4.3h28.7a4.123,4.123,0,0,0,3.914-4.3V36.3A4.123,4.123,0,0,0,32.618,32Zm-1.4,26a9.018,9.018,0,0,1-2.108,6.007,7.388,7.388,0,0,1-5.463,2.317c-2.154.134-8.61.134-10.764,0a7.4,7.4,0,0,1-5.463-2.317A8.991,8.991,0,0,1,5.315,58c-.122-2.369-.122-9.468,0-11.834a8.989,8.989,0,0,1,2.108-6.007,7.4,7.4,0,0,1,5.463-2.311c2.154-.134,8.61-.134,10.764,0a7.389,7.389,0,0,1,5.463,2.317,9.024,9.024,0,0,1,2.108,6.011C31.343,48.535,31.343,55.628,31.222,58Z" transform="translate(0 -32)"/></svg>