<?xml version="1.0" encoding="UTF-8" standalone="no"?>
<!-- Created with Inkscape (http://www.inkscape.org/) -->

<svg
   xmlns:dc="http://purl.org/dc/elements/1.1/"
   xmlns:cc="http://creativecommons.org/ns#"
   xmlns:rdf="http://www.w3.org/1999/02/22-rdf-syntax-ns#"
   xmlns:svg="http://www.w3.org/2000/svg"
   xmlns="http://www.w3.org/2000/svg"
   xmlns:sodipodi="http://sodipodi.sourceforge.net/DTD/sodipodi-0.dtd"
   xmlns:inkscape="http://www.inkscape.org/namespaces/inkscape"
   width="250.00024mm"
   height="250.00024mm"
   viewBox="0 0 250.00024 250.00024"
   version="1.1"
   id="svg8"
   sodipodi:docname="icon-linkedin-light-blue.svg"
   inkscape:version="0.92.4 (5da689c313, 2019-01-14)">
  <defs
     id="defs2" />
  <sodipodi:namedview
     id="base"
     pagecolor="#ffffff"
     bordercolor="#666666"
     borderopacity="1.0"
     inkscape:pageopacity="0.0"
     inkscape:pageshadow="2"
     inkscape:zoom="0.45086674"
     inkscape:cx="-52.809405"
     inkscape:cy="139.27657"
     inkscape:document-units="mm"
     inkscape:current-layer="layer1"
     showgrid="false"
     inkscape:pagecheckerboard="true"
     inkscape:window-width="3840"
     inkscape:window-height="2054"
     inkscape:window-x="-9"
     inkscape:window-y="-9"
     inkscape:window-maximized="1"
     fit-margin-top="0"
     fit-margin-left="0"
     fit-margin-right="0"
     fit-margin-bottom="0" />
  <metadata
     id="metadata5">
    <rdf:RDF>
      <cc:Work
         rdf:about="">
        <dc:format>image/svg+xml</dc:format>
        <dc:type
           rdf:resource="http://purl.org/dc/dcmitype/StillImage" />
        <dc:title></dc:title>
      </cc:Work>
    </rdf:RDF>
  </metadata>
  <g
     inkscape:label="Layer 1"
     inkscape:groupmode="layer"
     id="layer1"
     transform="translate(19.166788,14.717448)">
    <path
       style="fill:#007cbd;fill-opacity:1;stroke:none;stroke-width:1.76685393;stroke-miterlimit:4;stroke-dasharray:none;stroke-opacity:1"
       d="M -72.441406,-55.625 V 889.25781 H 822.39258 L 872.44141,-55.625 Z M 231.39648,192.86133 a 53.790002,53.790002 0 0 1 52.1836,53.73242 c 0,29.70002 -24.10101,54.29883 -53.79102,54.29883 C 200.08908,300.89258 176,276.29377 176,246.59375 a 53.790002,53.790002 0 0 1 55.39648,-53.73242 z M 512.7207,334.19336 c 93.99999,0 111.2793,61.90078 111.2793,142.30078 v 164.29883 h -0.0996 -92.67969 V 495.19336 c 0,-34.69999 -0.70102,-79.19922 -48.29101,-79.19922 -48.29001,0 -55.68946,37.69922 -55.68946,76.69922 v 148.09961 h -92.7793 V 341.69336 h 89.07812 v 40.80078 h 1.30078 c 12.40003,-23.5 42.69087,-48.30078 87.88086,-48.30078 z m -329.32031,7.5 h 92.87891 v 299.09961 h -92.87891 z"
       transform="scale(0.26458333)"
       id="path4581"
       inkscape:connector-curvature="0" />
  </g>
</svg>
