<?xml version="1.0" encoding="UTF-8" standalone="no"?>
<!-- Created with Inkscape (http://www.inkscape.org/) -->

<svg
   xmlns:dc="http://purl.org/dc/elements/1.1/"
   xmlns:cc="http://creativecommons.org/ns#"
   xmlns:rdf="http://www.w3.org/1999/02/22-rdf-syntax-ns#"
   xmlns:svg="http://www.w3.org/2000/svg"
   xmlns="http://www.w3.org/2000/svg"
   xmlns:sodipodi="http://sodipodi.sourceforge.net/DTD/sodipodi-0.dtd"
   xmlns:inkscape="http://www.inkscape.org/namespaces/inkscape"
   width="249.99971mm"
   height="250.00024mm"
   viewBox="0 0 249.99971 250.00024"
   version="1.1"
   id="svg8"
   sodipodi:docname="icon-youtube-light-blue.svg"
   inkscape:version="0.92.4 (5da689c313, 2019-01-14)">
  <defs
     id="defs2" />
  <sodipodi:namedview
     id="base"
     pagecolor="#ffffff"
     bordercolor="#666666"
     borderopacity="1.0"
     inkscape:pageopacity="0.0"
     inkscape:pageshadow="2"
     inkscape:zoom="0.63762186"
     inkscape:cx="221.05144"
     inkscape:cy="286.45726"
     inkscape:document-units="mm"
     inkscape:current-layer="layer1"
     showgrid="false"
     inkscape:pagecheckerboard="true"
     inkscape:window-width="3840"
     inkscape:window-height="2054"
     inkscape:window-x="-9"
     inkscape:window-y="-9"
     inkscape:window-maximized="1"
     fit-margin-top="0"
     fit-margin-left="0"
     fit-margin-right="0"
     fit-margin-bottom="0" />
  <metadata
     id="metadata5">
    <rdf:RDF>
      <cc:Work
         rdf:about="">
        <dc:format>image/svg+xml</dc:format>
        <dc:type
           rdf:resource="http://purl.org/dc/dcmitype/StillImage" />
        <dc:title></dc:title>
      </cc:Work>
    </rdf:RDF>
  </metadata>
  <g
     inkscape:label="Layer 1"
     inkscape:groupmode="layer"
     id="layer1"
     transform="translate(3.2243111,35.831563)">
    <path
       style="fill:#007cbd;fill-opacity:1;stroke:none;stroke-width:1.76685393;stroke-miterlimit:4;stroke-dasharray:none;stroke-opacity:1"
       d="M 70.201172,-95.292969 V 849.58984 H 965.0332 L 1015.082,-95.292969 Z M 542.64062,185.14844 c 0,0 170.78111,3e-4 213.3711,11.48633 23.49698,6.32099 42.00415,24.94572 48.28516,48.5957 11.41201,42.86702 11.4121,132.30664 11.4121,132.30664 0,0 -9e-5,89.4377 -11.4121,132.30469 -6.28101,23.65001 -24.78818,41.49931 -48.28516,47.82031 -42.59101,11.48598 -213.3711,11.48633 -213.3711,11.48633 10e-6,0 -170.78009,-3.5e-4 -213.37109,-11.48633 -23.497,-6.321 -42.0022,-24.1703 -48.2832,-47.82031 -11.412,-42.86699 -11.41211,-132.30469 -11.41211,-132.30469 0,0 1.1e-4,-89.43962 11.41211,-132.30664 6.281,-23.64998 24.7862,-42.27373 48.2832,-48.5957 42.591,-11.48603 213.37109,-11.48633 213.37109,-11.48633 z m -55.85351,111.18554 v 162.4043 l 142.73828,-81.19922 z"
       transform="matrix(0.26458333,0,0,0.26458333,-21.798371,-10.618632)"
       id="path4581"
       inkscape:connector-curvature="0" />
  </g>
</svg>
