<?xml version="1.0" encoding="UTF-8" standalone="no"?>
<!-- Created with Inkscape (http://www.inkscape.org/) -->

<svg
   xmlns:dc="http://purl.org/dc/elements/1.1/"
   xmlns:cc="http://creativecommons.org/ns#"
   xmlns:rdf="http://www.w3.org/1999/02/22-rdf-syntax-ns#"
   xmlns:svg="http://www.w3.org/2000/svg"
   xmlns="http://www.w3.org/2000/svg"
   xmlns:sodipodi="http://sodipodi.sourceforge.net/DTD/sodipodi-0.dtd"
   xmlns:inkscape="http://www.inkscape.org/namespaces/inkscape"
   width="249.99971mm"
   height="250.00024mm"
   viewBox="0 0 249.99971 250.00024"
   version="1.1"
   id="svg8"
   sodipodi:docname="icon-email-light-blue.svg"
   inkscape:version="0.92.4 (5da689c313, 2019-01-14)">
  <defs
     id="defs2" />
  <sodipodi:namedview
     id="base"
     pagecolor="#ffffff"
     bordercolor="#666666"
     borderopacity="1.0"
     inkscape:pageopacity="0.0"
     inkscape:pageshadow="2"
     inkscape:zoom="0.63762186"
     inkscape:cx="-56.542556"
     inkscape:cy="286.45726"
     inkscape:document-units="mm"
     inkscape:current-layer="layer1"
     showgrid="false"
     inkscape:pagecheckerboard="true"
     inkscape:window-width="3840"
     inkscape:window-height="2054"
     inkscape:window-x="-9"
     inkscape:window-y="-9"
     inkscape:window-maximized="1"
     fit-margin-top="0"
     fit-margin-left="0"
     fit-margin-right="0"
     fit-margin-bottom="0" />
  <metadata
     id="metadata5">
    <rdf:RDF>
      <cc:Work
         rdf:about="">
        <dc:format>image/svg+xml</dc:format>
        <dc:type
           rdf:resource="http://purl.org/dc/dcmitype/StillImage" />
        <dc:title></dc:title>
      </cc:Work>
    </rdf:RDF>
  </metadata>
  <g
     inkscape:label="Layer 1"
     inkscape:groupmode="layer"
     id="layer1"
     transform="translate(3.2243111,35.831563)">
    <path
       style="fill:#007cbd;fill-opacity:1;stroke:none;stroke-width:1.76685393;stroke-miterlimit:4;stroke-dasharray:none;stroke-opacity:1"
       d="M 0 0 L 0 944.88281 L 894.83203 944.88281 L 944.88086 0 L 0 0 z M 264.43945 280.44141 L 680.44141 280.44141 C 706.94137 280.44141 728.44141 301.94141 728.44141 328.44141 L 728.44141 616.44141 C 728.44141 642.94137 706.94137 664.44141 680.44141 664.44141 L 264.43945 664.44141 C 237.93945 664.44141 216.43945 642.94137 216.43945 616.44141 L 216.43945 328.44141 C 216.43945 301.94141 237.93945 280.44141 264.43945 280.44141 z M 264.43945 312.44141 C 255.63945 312.44141 248.43945 319.64141 248.43945 328.44141 L 248.43945 369.8418 C 270.33945 388.3418 301.64102 413.84063 399.04102 491.14062 C 415.84102 504.54063 449.23947 536.84139 472.43945 536.44141 C 495.63944 536.84139 528.93984 504.54063 545.83984 491.14062 C 643.23986 413.84063 674.54139 388.3418 696.44141 369.8418 L 696.44141 328.44141 C 696.44141 319.64141 689.24139 312.44141 680.44141 312.44141 L 264.43945 312.44141 z M 248.43945 411.44141 L 248.43945 616.44141 C 248.43945 625.24139 255.63945 632.44141 264.43945 632.44141 L 680.44141 632.44141 C 689.24139 632.44141 696.44141 625.24139 696.44141 616.44141 L 696.44141 411.44141 C 673.64141 430.1414 637.64027 459.04061 565.74023 516.14062 C 544.74023 532.94063 508.83944 568.7415 472.43945 568.44141 C 435.83945 568.64142 399.64064 532.5406 379.14062 516.14062 C 307.24064 459.04061 271.23945 430.1414 248.43945 411.44141 z "
       transform="matrix(0.26458333,0,0,0.26458333,-3.2243111,-35.831563)"
       id="path4581" />
  </g>
</svg>
