<?xml version="1.0" encoding="UTF-8" standalone="no"?>
<!-- Created with Inkscape (http://www.inkscape.org/) -->

<svg
   xmlns:dc="http://purl.org/dc/elements/1.1/"
   xmlns:cc="http://creativecommons.org/ns#"
   xmlns:rdf="http://www.w3.org/1999/02/22-rdf-syntax-ns#"
   xmlns:svg="http://www.w3.org/2000/svg"
   xmlns="http://www.w3.org/2000/svg"
   xmlns:sodipodi="http://sodipodi.sourceforge.net/DTD/sodipodi-0.dtd"
   xmlns:inkscape="http://www.inkscape.org/namespaces/inkscape"
   width="249.99973mm"
   height="250.00024mm"
   viewBox="0 0 249.99973 250.00024"
   version="1.1"
   id="svg8"
   sodipodi:docname="icon-instagram-green.svg"
   inkscape:version="0.92.4 (5da689c313, 2019-01-14)">
  <defs
     id="defs2" />
  <sodipodi:namedview
     id="base"
     pagecolor="#ffffff"
     bordercolor="#666666"
     borderopacity="1.0"
     inkscape:pageopacity="0.0"
     inkscape:pageshadow="2"
     inkscape:zoom="0.7"
     inkscape:cx="301.2689"
     inkscape:cy="300.51547"
     inkscape:document-units="mm"
     inkscape:current-layer="layer1"
     showgrid="false"
     inkscape:pagecheckerboard="true"
     inkscape:window-width="3840"
     inkscape:window-height="2054"
     inkscape:window-x="-9"
     inkscape:window-y="-9"
     inkscape:window-maximized="1"
     fit-margin-top="0"
     fit-margin-left="0"
     fit-margin-right="0"
     fit-margin-bottom="0" />
  <metadata
     id="metadata5">
    <rdf:RDF>
      <cc:Work
         rdf:about="">
        <dc:format>image/svg+xml</dc:format>
        <dc:type
           rdf:resource="http://purl.org/dc/dcmitype/StillImage" />
        <dc:title></dc:title>
      </cc:Work>
    </rdf:RDF>
  </metadata>
  <g
     inkscape:label="Layer 1"
     inkscape:groupmode="layer"
     id="layer1"
     transform="translate(24.83621,-13.249837)">
    <path
       style="fill:#a6c538;fill-opacity:1;stroke:none;stroke-width:1.76685393;stroke-miterlimit:4;stroke-dasharray:none;stroke-opacity:1"
       d="M -93.869141,50.078125 V 994.96094 H 800.96289 L 851.01172,50.078125 Z M 378.57227,298.44531 c 36.975,0 73.94922,0.52422 92.44921,1.57422 35.9,1.8 67.70041,9.99923 93.9004,36.19922 26.29999,26.20003 34.49918,58.0004 36.19921,93.90039 2.09998,36.99999 2.09998,147.80079 0,184.80078 -1.8,35.9 -9.99923,67.70041 -36.19921,93.90039 -26.19999,26.3 -58.0004,34.49919 -93.9004,36.19922 -36.99998,2.09998 -147.90039,2.09998 -184.90039,0 -35.9,-1.8 -67.60039,-9.99923 -93.90039,-36.19922 -26.30003,-26.19998 -34.49922,-58.00039 -36.19922,-93.90039 -2.10001,-36.99999 -2.10001,-147.9004 0,-184.90039 1.8,-35.89999 9.89919,-67.7004 36.19922,-93.90039 26.3,-26.20002 58.1004,-34.39961 93.90039,-36.09961 18.5,-1.05 55.47617,-1.57422 92.45118,-1.57422 z m -39.09375,40.10547 c -33.25271,-0.0121 -72.67578,1.2258 -92.95704,9.26953 -19.69999,7.90001 -34.79961,22.99963 -42.5996,42.59961 -11.60002,29.4 -9,99.4996 -9,132.09961 0,32.60001 -2.69999,102.59964 9,132.09961 7.9,19.69999 22.99962,34.79961 42.5996,42.59961 29.4,11.60001 99.49961,9 132.09961,9 32.60002,0 102.59961,2.70002 132.09961,-9 19.7,-7.90001 34.80157,-22.99958 42.60157,-42.59961 11.70001,-29.39996 9,-99.4996 9,-132.09961 0,-32.60001 2.70001,-102.5996 -9,-132.09961 -7.90001,-19.69998 -23.00158,-34.79961 -42.60157,-42.59961 -29.4,-11.60001 -99.49959,-9 -132.09961,-9 -10.1875,0 -24.02771,-0.26404 -39.14257,-0.26953 z m 158.74218,37.56836 c 14.79999,0 26.80078,12.00079 26.80078,26.80078 0,14.9 -12.00079,26.79883 -26.80078,26.79883 -14.89999,0 -26.79882,-11.9988 -26.79882,-26.79883 0,-14.79999 11.9988,-26.80078 26.79882,-26.80078 z m -119.59961,31.5 c 63.6,0 114.90039,51.30039 114.90039,114.90039 0,63.6 -51.30039,114.90039 -114.90039,114.90039 -63.6,0 -114.90039,-51.30039 -114.90039,-114.90039 0,-63.6 51.30039,-114.90039 114.90039,-114.90039 z m 0,40.20117 c -41.19999,0 -74.69921,33.49923 -74.69921,74.69922 -10e-6,41.19999 33.59921,74.69922 74.69921,74.69922 41.10002,0 74.70118,-33.49923 74.70118,-74.69922 0,-41.19999 -33.50119,-74.69922 -74.70118,-74.69922 z"
       transform="scale(0.26458333)"
       id="path4581"
       inkscape:connector-curvature="0" />
  </g>
</svg>
