<?xml version="1.0" encoding="UTF-8" standalone="no"?>
<!-- Created with Inkscape (http://www.inkscape.org/) -->

<svg
   xmlns:dc="http://purl.org/dc/elements/1.1/"
   xmlns:cc="http://creativecommons.org/ns#"
   xmlns:rdf="http://www.w3.org/1999/02/22-rdf-syntax-ns#"
   xmlns:svg="http://www.w3.org/2000/svg"
   xmlns="http://www.w3.org/2000/svg"
   xmlns:sodipodi="http://sodipodi.sourceforge.net/DTD/sodipodi-0.dtd"
   xmlns:inkscape="http://www.inkscape.org/namespaces/inkscape"
   width="249.99973mm"
   height="250.00024mm"
   viewBox="0 0 249.99973 250.00024"
   version="1.1"
   id="svg8"
   sodipodi:docname="icon-tritter-white-transparent.svg"
   inkscape:version="0.92.4 (5da689c313, 2019-01-14)">
  <defs
     id="defs2" />
  <sodipodi:namedview
     id="base"
     pagecolor="#ffffff"
     bordercolor="#666666"
     borderopacity="1.0"
     inkscape:pageopacity="0.0"
     inkscape:pageshadow="2"
     inkscape:zoom="0.7"
     inkscape:cx="460.2569"
     inkscape:cy="313.78852"
     inkscape:document-units="mm"
     inkscape:current-layer="layer1"
     showgrid="false"
     inkscape:pagecheckerboard="true"
     inkscape:window-width="2560"
     inkscape:window-height="1356"
     inkscape:window-x="-8"
     inkscape:window-y="-8"
     inkscape:window-maximized="1"
     fit-margin-top="0"
     fit-margin-left="0"
     fit-margin-right="0"
     fit-margin-bottom="0" />
  <metadata
     id="metadata5">
    <rdf:RDF>
      <cc:Work
         rdf:about="">
        <dc:format>image/svg+xml</dc:format>
        <dc:type
           rdf:resource="http://purl.org/dc/dcmitype/StillImage" />
        <dc:title></dc:title>
      </cc:Work>
    </rdf:RDF>
  </metadata>
  <g
     inkscape:label="Layer 1"
     inkscape:groupmode="layer"
     id="layer1"
     transform="translate(2.157491,-25.722977)">
    <path
       style="fill:#ffffff;fill-opacity:0.49803922;stroke:none;stroke-width:1.76685393;stroke-miterlimit:4;stroke-dasharray:none;stroke-opacity:1"
       d="M -8.1542969,97.220703 V 1042.1035 H 886.67773 L 936.72656,97.220703 Z M 562.72266,361.74414 c 30.21301,0 57.50189,12.66972 76.66992,33.13672 23.71498,-4.54802 46.45466,-13.31982 66.59765,-25.33984 -7.79799,24.36599 -24.36482,44.83219 -46.13085,57.82617 21.11701,-2.27297 41.58377,-8.12119 60.42578,-16.24219 -14.29202,20.79099 -32.16194,39.3089 -52.62891,54.25391 0.32504,4.54798 0.32617,9.09651 0.32617,13.64453 0,138.72 -105.58359,298.55664 -298.55859,298.55664 -59.45201,0 -114.67975,-17.21848 -161.13672,-47.10547 8.44698,0.97402 16.56782,1.29883 25.33984,1.29883 49.05498,0 94.21244,-16.56805 130.27344,-44.83203 -46.13201,-0.97501 -84.79133,-31.1875 -98.11133,-72.77149 6.49799,0.97399 12.99537,1.625 19.81836,1.625 9.421,0 18.84228,-1.30121 27.61328,-3.57422 -48.08103,-9.74702 -84.14257,-51.97935 -84.14258,-102.98437 v -1.29883 c 13.96899,7.79701 30.2127,12.66938 47.42969,13.31836 -28.26398,-18.84299 -46.77929,-51.00462 -46.77929,-87.39063 0,-19.492 5.19598,-37.36108 14.29296,-52.95507 51.655,63.67498 129.30027,105.25959 216.36524,109.80859 -1.62399,-7.79701 -2.59961,-15.91904 -2.59961,-24.04102 0,-57.82801 46.78355,-104.93359 104.93555,-104.93359 z"
       transform="scale(0.26458333)"
       id="path4581"
       inkscape:connector-curvature="0" />
  </g>
</svg>
