<?xml version="1.0" encoding="UTF-8" standalone="no"?>
<!-- Created with Inkscape (http://www.inkscape.org/) -->

<svg
   xmlns:dc="http://purl.org/dc/elements/1.1/"
   xmlns:cc="http://creativecommons.org/ns#"
   xmlns:rdf="http://www.w3.org/1999/02/22-rdf-syntax-ns#"
   xmlns:svg="http://www.w3.org/2000/svg"
   xmlns="http://www.w3.org/2000/svg"
   xmlns:sodipodi="http://sodipodi.sourceforge.net/DTD/sodipodi-0.dtd"
   xmlns:inkscape="http://www.inkscape.org/namespaces/inkscape"
   width="250.00024mm"
   height="250.00024mm"
   viewBox="0 0 250.00024 250.00024"
   version="1.1"
   id="svg8"
   inkscape:version="0.92.4 (5da689c313, 2019-01-14)"
   sodipodi:docname="icon-flickr-white.svg">
  <defs
     id="defs2" />
  <sodipodi:namedview
     id="base"
     pagecolor="#ffffff"
     bordercolor="#666666"
     borderopacity="1.0"
     inkscape:pageopacity="0.0"
     inkscape:pageshadow="2"
     inkscape:zoom="0.7"
     inkscape:cx="-53.611683"
     inkscape:cy="394.20471"
     inkscape:document-units="mm"
     inkscape:current-layer="layer1"
     showgrid="false"
     inkscape:pagecheckerboard="true"
     inkscape:window-width="3840"
     inkscape:window-height="2054"
     inkscape:window-x="-9"
     inkscape:window-y="-9"
     inkscape:window-maximized="1"
     fit-margin-top="0"
     fit-margin-left="0"
     fit-margin-right="0"
     fit-margin-bottom="0" />
  <metadata
     id="metadata5">
    <rdf:RDF>
      <cc:Work
         rdf:about="">
        <dc:format>image/svg+xml</dc:format>
        <dc:type
           rdf:resource="http://purl.org/dc/dcmitype/StillImage" />
        <dc:title></dc:title>
      </cc:Work>
    </rdf:RDF>
  </metadata>
  <g
     inkscape:label="Layer 1"
     inkscape:groupmode="layer"
     id="layer1"
     transform="translate(174.515,-28.368809)">
    <path
       style="fill:#ffffff;fill-opacity:1;stroke:none;stroke-width:1.76685393;stroke-miterlimit:4;stroke-dasharray:none;stroke-opacity:1"
       d="M 0 0 L 0 944.88281 L 894.83398 944.88281 L 944.88281 0 L 0 0 z M 305.98828 339.48828 C 379.47889 339.48828 438.94141 398.9508 438.94141 472.44141 C 438.94141 545.93194 379.47889 605.39453 305.98828 605.39453 C 232.49773 605.39453 173.03516 545.93194 173.03516 472.44141 C 173.03516 398.9508 232.49773 339.48828 305.98828 339.48828 z M 638.89453 339.48828 C 712.38515 339.48828 771.84766 398.9508 771.84766 472.44141 C 771.84766 545.93194 712.38515 605.39453 638.89453 605.39453 C 565.40402 605.39453 505.94141 545.93194 505.94141 472.44141 C 505.94141 398.9508 565.40402 339.48828 638.89453 339.48828 z "
       transform="matrix(0.26458333,0,0,0.26458333,-174.515,28.368809)"
       id="path4581" />
  </g>
</svg>
