<?xml version="1.0" encoding="UTF-8" standalone="no"?>
<svg
   xmlns:dc="http://purl.org/dc/elements/1.1/"
   xmlns:cc="http://creativecommons.org/ns#"
   xmlns:rdf="http://www.w3.org/1999/02/22-rdf-syntax-ns#"
   xmlns:svg="http://www.w3.org/2000/svg"
   xmlns="http://www.w3.org/2000/svg"
   xmlns:sodipodi="http://sodipodi.sourceforge.net/DTD/sodipodi-0.dtd"
   xmlns:inkscape="http://www.inkscape.org/namespaces/inkscape"
   viewBox="0 0 448 636"
   version="1.1"
   id="svg4"
   sodipodi:docname="menu.svg"
   width="448"
   height="636"
   inkscape:version="0.92.4 (5da689c313, 2019-01-14)">
  <metadata
     id="metadata10">
    <rdf:RDF>
      <cc:Work
         rdf:about="">
        <dc:format>image/svg+xml</dc:format>
        <dc:type
           rdf:resource="http://purl.org/dc/dcmitype/StillImage" />
        <dc:title></dc:title>
      </cc:Work>
    </rdf:RDF>
  </metadata>
  <defs
     id="defs8" />
  <sodipodi:namedview
     pagecolor="#ffffff"
     bordercolor="#666666"
     borderopacity="1"
     objecttolerance="10"
     gridtolerance="10"
     guidetolerance="10"
     inkscape:pageopacity="0"
     inkscape:pageshadow="2"
     inkscape:window-width="3840"
     inkscape:window-height="2054"
     id="namedview6"
     showgrid="false"
     fit-margin-top="0"
     fit-margin-left="0"
     fit-margin-right="0"
     fit-margin-bottom="0"
     inkscape:zoom="1.3037281"
     inkscape:cx="291.98935"
     inkscape:cy="216.21233"
     inkscape:window-x="-9"
     inkscape:window-y="-9"
     inkscape:window-maximized="1"
     inkscape:current-layer="svg4"
     inkscape:pagecheckerboard="true" />
  <g
     aria-label="MENU"
     style="font-style:normal;font-variant:normal;font-weight:normal;font-stretch:normal;font-size:68.83644104px;line-height:1.25;font-family:'Britannic Bold';-inkscape-font-specification:'Britannic Bold, ';letter-spacing:0px;word-spacing:0px;fill:#ffffff;fill-opacity:1;stroke:none;stroke-width:1.72091103"
     id="text814">
    <path
       d="m 121.83435,634.06396 h -13.47151 v -77.60233 q 0,-9.19612 1.12935,-22.50629 h -0.32267 q -1.93603,7.82477 -3.46871,11.21281 L 66.173631,634.06396 H 59.558879 L 20.112372,545.8135 Q 18.41835,541.94145 16.64366,533.95534 h -0.322671 q 0.645342,6.93743 0.645342,22.66763 v 77.44099 H 3.898163 V 518.38648 h 17.90823 l 35.49379,80.6677 q 4.114053,9.27679 5.324069,13.87485 h 0.484006 q 3.468711,-9.51879 5.566072,-14.19752 l 36.2198,-80.34503 h 16.94022 z"
       style="font-style:normal;font-variant:normal;font-weight:normal;font-stretch:normal;font-size:165.2074585px;font-family:'Segoe UI';-inkscape-font-specification:'Segoe UI';fill:#ffffff;fill-opacity:1;stroke-width:1.72091103"
       id="path814" />
    <path
       d="M 213.63419,634.06396 H 152.32674 V 518.38648 h 58.72609 v 12.26149 h -45.17392 v 38.47849 h 41.78587 v 12.18083 h -41.78587 v 40.49518 h 47.75528 z"
       style="font-style:normal;font-variant:normal;font-weight:normal;font-stretch:normal;font-size:165.2074585px;font-family:'Segoe UI';-inkscape-font-specification:'Segoe UI';fill:#ffffff;fill-opacity:1;stroke-width:1.72091103"
       id="path816" />
    <path
       d="m 329.15033,634.06396 h -16.61754 l -59.53277,-92.20318 q -2.25869,-3.46871 -3.71071,-7.26009 h -0.48401 q 0.64534,3.71071 0.64534,15.89153 v 83.57174 H 235.89847 V 518.38648 h 17.58556 l 57.91941,90.75116 q 3.63005,5.64674 4.67873,7.7441 h 0.32267 q -0.80668,-5.00139 -0.80668,-17.02088 v -81.47438 h 13.55217 z"
       style="font-style:normal;font-variant:normal;font-weight:normal;font-stretch:normal;font-size:165.2074585px;font-family:'Segoe UI';-inkscape-font-specification:'Segoe UI';fill:#ffffff;fill-opacity:1;stroke-width:1.72091103"
       id="path818" />
    <path
       d="m 444.10184,587.2767 q 0,48.72329 -43.9639,48.72329 -42.10854,0 -42.10854,-46.86794 v -70.74557 h 13.55217 v 69.85823 q 0,35.57446 30.00839,35.57446 28.9597,0 28.9597,-34.36445 v -71.06824 h 13.55218 z"
       style="font-style:normal;font-variant:normal;font-weight:normal;font-stretch:normal;font-size:165.2074585px;font-family:'Segoe UI';-inkscape-font-specification:'Segoe UI';fill:#ffffff;fill-opacity:1;stroke-width:1.72091103"
       id="path820" />
  </g>
  <rect
     style="fill:#ffffff;fill-opacity:1;stroke:none;stroke-width:1.75748026;stroke-miterlimit:4;stroke-dasharray:none;stroke-opacity:1"
     id="rect821"
     width="448"
     height="40"
     x="0"
     y="0" />
  <rect
     style="fill:#ffffff;fill-opacity:1;stroke:none;stroke-width:1.75748026;stroke-miterlimit:4;stroke-dasharray:none;stroke-opacity:1"
     id="rect821-2"
     width="448"
     height="40"
     x="0"
     y="335.81793" />
  <rect
     style="fill:#ffffff;fill-opacity:1;stroke:none;stroke-width:1.75748026;stroke-miterlimit:4;stroke-dasharray:none;stroke-opacity:1"
     id="rect821-2-6"
     width="448"
     height="40"
     x="0"
     y="167.90897" />
</svg>
