<?xml version="1.0" encoding="UTF-8" standalone="no"?>
<svg
   xmlns:dc="http://purl.org/dc/elements/1.1/"
   xmlns:cc="http://creativecommons.org/ns#"
   xmlns:rdf="http://www.w3.org/1999/02/22-rdf-syntax-ns#"
   xmlns:svg="http://www.w3.org/2000/svg"
   xmlns="http://www.w3.org/2000/svg"
   xmlns:sodipodi="http://sodipodi.sourceforge.net/DTD/sodipodi-0.dtd"
   xmlns:inkscape="http://www.inkscape.org/namespaces/inkscape"
   viewBox="0 0 512 512"
   version="1.1"
   id="svg4"
   sodipodi:docname="microscope.svg"
   inkscape:version="0.92.4 (5da689c313, 2019-01-14)">
  <metadata
     id="metadata10">
    <rdf:RDF>
      <cc:Work
         rdf:about="">
        <dc:format>image/svg+xml</dc:format>
        <dc:type
           rdf:resource="http://purl.org/dc/dcmitype/StillImage" />
        <dc:title></dc:title>
      </cc:Work>
    </rdf:RDF>
  </metadata>
  <defs
     id="defs8" />
  <sodipodi:namedview
     pagecolor="#ffffff"
     bordercolor="#666666"
     borderopacity="1"
     objecttolerance="10"
     gridtolerance="10"
     guidetolerance="10"
     inkscape:pageopacity="0"
     inkscape:pageshadow="2"
     inkscape:window-width="3840"
     inkscape:window-height="2054"
     id="namedview6"
     showgrid="false"
     inkscape:pagecheckerboard="true"
     inkscape:zoom="0.4609375"
     inkscape:cx="256"
     inkscape:cy="256"
     inkscape:window-x="-9"
     inkscape:window-y="-9"
     inkscape:window-maximized="1"
     inkscape:current-layer="svg4" />
  <path
     d="M456 416h-40.99C454.22 386.81 480 340.52 480 288c0-88.22-71.78-160-160-160V64c0-17.67-14.33-32-32-32V16c0-8.84-7.16-16-16-16h-96c-8.84 0-16 7.16-16 16v16c-17.67 0-32 14.33-32 32v224c0 17.67 14.33 32 32 32v48c0 8.84 7.16 16 16 16h96c8.84 0 16-7.16 16-16v-48c17.67 0 32-14.33 32-32V160c70.59 0 128 57.42 128 128s-57.41 128-128 128H56c-30.88 0-56 25.12-56 56 0 22.06 17.94 40 40 40h432c22.06 0 40-17.94 40-40 0-30.88-25.12-56-56-56zm-200-64h-64v-32h64v32zm32-64H160V64h32V32h64v32h32v224zm184 192H40c-4.42 0-8-3.58-8-8 0-13.26 10.75-24 24-24h400c13.25 0 24 10.74 24 24 0 4.42-3.58 8-8 8z"
     id="path2"
     style="fill:#ffffff;fill-opacity:1" />
</svg>
