<?xml version="1.0" encoding="utf-8"?>
<!-- Generator: Adobe Illustrator 26.0.2, SVG Export Plug-In . SVG Version: 6.00 Build 0)  -->
<svg version="1.1" id="Layer_1" xmlns="http://www.w3.org/2000/svg" xmlns:xlink="http://www.w3.org/1999/xlink" x="0px" y="0px"
	 viewBox="0 0 297.97 232.29" style="enable-background:new 0 0 297.97 232.29;" xml:space="preserve">
<style type="text/css">
	.st0{fill:#009ED4;}
	.st1{fill:#FFFFFF;}
</style>
<rect x="317.45" y="-5.08" class="st0" width="306.21" height="242.68"/>
<rect x="926.68" y="-5.08" class="st0" width="306.21" height="242.68"/>
<g>
	<g>
		<g>
			<path class="st1" d="M429.05,72.02c12.35,0,23.54,5.01,31.64,13.1l16.16-16.16c-12.23-12.23-29.13-19.8-47.8-19.8
				c-2.25,0-4.47,0.12-6.67,0.33v23.02C424.55,72.19,426.78,72.02,429.05,72.02z"/>
		</g>
		<g>
			<path class="st1" d="M409.09,76.71V52.16c-1.53,0.47-3.03,1.01-4.5,1.58V79.3C406.03,78.35,407.54,77.49,409.09,76.71z"/>
		</g>
		<g>
			<path class="st1" d="M391.3,92.75V60.67c-1.55,1.05-3.05,2.17-4.5,3.34v38.03C387.94,98.75,389.46,95.64,391.3,92.75z"/>
		</g>
		<g>
			<path class="st1" d="M404.59,154.21v25.56c1.48,0.57,2.98,1.11,4.5,1.58V156.8C407.54,156.02,406.03,155.16,404.59,154.21z"/>
		</g>
		<g>
			<path class="st1" d="M386.8,131.48v38.03c1.46,1.17,2.95,2.29,4.5,3.34v-32.07C389.46,137.88,387.94,134.77,386.8,131.48z"/>
		</g>
		<g>
			<path class="st1" d="M429.05,161.5c-2.27,0-4.49-0.17-6.67-0.5v23.02c2.19,0.22,4.42,0.33,6.67,0.33
				c18.67,0,35.56-7.57,47.8-19.8l-16.16-16.16C452.59,156.49,441.4,161.5,429.05,161.5z"/>
		</g>
		<g>
			<path class="st1" d="M369.01,85.71v62.09c1.34,2.59,2.85,5.09,4.5,7.48V78.24C371.86,80.62,370.35,83.12,369.01,85.71z"/>
		</g>
		<g>
			<path class="st1" d="M422.38,184.02v2.8h-13.3v-5.46C413.36,182.67,417.8,183.58,422.38,184.02z"/>
			<rect x="409.09" y="192.37" class="st1" width="13.3" height="3.91"/>
		</g>
		<g>
			<polygon class="st1" points="415.73,35.81 415.73,38.59 422.38,38.59 422.38,41.5 409.09,41.5 409.09,33.03 422.38,33.03 
				422.38,35.81 			"/>
			<path class="st1" d="M409.09,47.06h13.3v2.43c-4.58,0.45-9.03,1.35-13.3,2.67V47.06z"/>
		</g>
		<g>
			<path class="st1" d="M404.59,179.77v1.49H391.3v-8.42C395.43,175.61,399.89,177.94,404.59,179.77z"/>
			<rect x="391.3" y="186.82" class="st1" width="13.29" height="4.95"/>
			<polygon class="st1" points="404.59,197.32 404.59,206.35 391.3,206.35 391.3,203.39 397.31,203.39 397.31,200.61 391.3,200.61 
				391.3,197.32 			"/>
		</g>
		<g>
			<path class="st1" d="M404.59,46.41v7.34c-4.7,1.83-9.15,4.14-13.29,6.93v-7.75h8.3v-2.78h-8.3v-3.74H404.59z"/>
		</g>
		<g>
			<path class="st1" d="M386.8,169.5v4.29h-13.29v-4.14h5.32v-2.78h-5.32v-11.61C377.24,160.64,381.72,165.43,386.8,169.5z"/>
			<rect x="373.51" y="179.35" class="st1" width="13.29" height="1.91"/>
			<rect x="373.51" y="186.82" class="st1" width="13.29" height="2.4"/>
		</g>
		<g>
			<rect x="373.51" y="25.94" class="st1" width="13.29" height="4.32"/>
			<polygon class="st1" points="386.8,35.81 386.8,46.39 373.51,46.39 373.51,44.01 380.78,44.01 380.78,41.24 373.51,41.24 
				373.51,35.81 			"/>
			<rect x="373.51" y="51.94" class="st1" width="13.29" height="4.93"/>
			<path class="st1" d="M373.51,62.43h13.29v1.59c-5.08,4.07-9.56,8.86-13.29,14.22V62.43z"/>
		</g>
		<g>
			<rect x="355.73" y="61.85" class="st1" width="13.29" height="4.39"/>
			<rect x="355.73" y="71.79" class="st1" width="13.29" height="1.96"/>
			<path class="st1" d="M369.01,85.71c-4.83,9.3-7.56,19.85-7.56,31.05c0,11.19,2.73,21.74,7.56,31.04v1.92h-13.29v-8.07h7.8v-2.78
				h-7.8v-16.06h4.12v-2.78h-4.12V93.13h6.01v-2.78h-6.01v-3.84h8.95v-2.78h-8.95V79.3h13.29V85.71z"/>
			<rect x="355.73" y="155.27" class="st1" width="13.29" height="4.48"/>
		</g>
	</g>
	<g>
		<rect x="386.8" y="30.25" class="st1" width="5.55" height="5.55"/>
	</g>
	<g>
		<rect x="367.96" y="46.38" class="st1" width="5.55" height="5.55"/>
	</g>
	<g>
		<rect x="422.38" y="186.82" class="st1" width="5.55" height="5.55"/>
	</g>
	<g>
		<rect x="370.74" y="41.24" class="st1" width="2.78" height="2.78"/>
	</g>
	<g>
		<rect x="422.38" y="35.81" class="st1" width="2.78" height="2.78"/>
	</g>
	<g>
		<rect x="350.17" y="66.23" class="st1" width="5.55" height="5.55"/>
	</g>
	<g>
		<rect x="352.95" y="149.72" class="st1" width="2.78" height="5.55"/>
	</g>
	<g>
		<rect x="365.56" y="173.8" class="st1" width="7.95" height="5.55"/>
	</g>
	<g>
		<rect x="386.8" y="191.77" class="st1" width="4.5" height="5.55"/>
	</g>
	<g>
		<rect x="406.09" y="41.5" class="st1" width="3" height="5.55"/>
	</g>
</g>
<g>
	<path class="st1" d="M496.9,163.88c-0.29,0-0.74,0.06-1.38,0.19c-1.09,0.21-2.65,0.28-3.83-0.09c-0.52-0.16-0.95-0.46-1.32-0.92
		c-0.38-0.46-0.67-1.13-0.89-1.97c-0.22-0.87-0.33-2.01-0.33-3.4c0-1.26,0.1-2.33,0.28-3.18c0.18-0.82,0.46-1.48,0.81-1.95
		c0.35-0.47,0.78-0.8,1.3-1c0.99-0.38,2.41-0.37,3.73-0.21c0.61,0.08,1.26,0.17,1.95,0.27l0.42,0.06v-1.33
		c0-0.43-0.23-0.76-0.62-0.91c-0.16-0.08-0.39-0.15-0.69-0.21c-0.28-0.05-0.59-0.11-0.93-0.15c-0.34-0.04-0.7-0.08-1.09-0.12
		c-0.39-0.03-0.75-0.05-1.08-0.05c-2.18,0-3.86,0.72-4.99,2.13c-1.11,1.39-1.67,3.66-1.67,6.76c0,1.27,0.11,2.45,0.32,3.49
		c0.21,1.07,0.58,2,1.09,2.77c0.52,0.79,1.22,1.4,2.09,1.83c0.86,0.42,1.92,0.64,3.16,0.64c0.71,0,1.48-0.06,2.31-0.18
		c0.83-0.12,1.5-0.27,2-0.46l0.24-0.09v-1.1c0-0.18-0.06-0.36-0.18-0.53C497.49,164.05,497.29,163.88,496.9,163.88z"/>
	<path class="st1" d="M506.43,164.11h-0.68c-0.58,0-0.86-0.1-0.99-0.18c-0.02-0.01-0.21-0.16-0.21-0.98v-19.85
		c0-0.52-0.32-0.85-0.85-0.85h-1.69v20.77c0,0.99,0.25,1.8,0.74,2.42c0.51,0.64,1.3,0.96,2.34,0.96c0.32,0,0.66-0.03,1.01-0.09
		c0.34-0.05,0.62-0.1,0.84-0.15l0.29-0.06v-1.17c0-0.18-0.05-0.35-0.16-0.51C507,164.28,506.81,164.11,506.43,164.11z"/>
	<path class="st1" d="M522.74,150.98c-0.46-0.67-1.11-1.2-1.93-1.58c-0.81-0.38-1.85-0.57-3.09-0.57c-1.1,0-2.09,0.17-2.94,0.49
		c-0.87,0.33-1.61,0.87-2.19,1.6c-0.58,0.72-1.03,1.66-1.32,2.8c-0.29,1.12-0.43,2.5-0.43,4.1c0,1.56,0.15,2.9,0.43,4
		c0.29,1.12,0.75,2.04,1.36,2.74c0.61,0.71,1.4,1.22,2.35,1.53c0.92,0.3,2.02,0.46,3.26,0.46h0h0c0.95-0.02,1.88-0.09,2.75-0.2
		c0.89-0.11,1.57-0.26,2.07-0.44l0.24-0.09v-1.1c0-0.18-0.06-0.36-0.18-0.53c-0.1-0.14-0.3-0.32-0.7-0.32
		c-0.29,0-0.75,0.06-1.41,0.18c-0.61,0.11-1.44,0.17-2.48,0.17c-1.04,0-1.9-0.11-2.55-0.32c-0.62-0.2-1.12-0.53-1.47-0.97
		c-0.36-0.45-0.63-1.05-0.79-1.77c-0.15-0.66-0.26-1.46-0.32-2.38h10.21l0.07-0.27c0.07-0.28,0.12-0.63,0.17-1.09
		c0.04-0.44,0.07-0.89,0.07-1.33c0-0.99-0.08-1.93-0.25-2.79C523.5,152.42,523.19,151.64,522.74,150.98z M517.72,151.14
		c0.79,0,1.43,0.1,1.9,0.31c0.46,0.2,0.82,0.49,1.08,0.87c0.27,0.38,0.46,0.89,0.56,1.5c0.1,0.65,0.16,1.4,0.16,2.25v0.41
		c0,0.03,0,0.05,0,0.08h-8.02c0.03-0.72,0.11-1.4,0.24-2.02c0.14-0.7,0.38-1.31,0.71-1.82c0.32-0.49,0.75-0.88,1.29-1.16
		C516.17,151.28,516.87,151.14,517.72,151.14z"/>
	<path class="st1" d="M539.25,150.59c-0.48-0.53-1.15-0.94-1.98-1.23c-1.33-0.46-3.27-0.52-5.63-0.29c-0.93,0.09-1.83,0.26-2.69,0.5
		l-0.26,0.07v1.05c0,0.56,0.34,0.91,0.88,0.91c0.31,0,0.85-0.07,1.67-0.2c0.76-0.13,1.64-0.19,2.62-0.19c0.81,0,1.5,0.06,2.04,0.19
		c0.52,0.12,0.94,0.31,1.25,0.56c0.3,0.25,0.51,0.58,0.65,1.01c0.14,0.46,0.21,1.04,0.21,1.71v0.91h-3.89
		c-2.04,0-3.64,0.43-4.74,1.27c-1.14,0.87-1.71,2.3-1.71,4.24c0,1.69,0.46,3.04,1.36,4.01c0.91,0.98,2.33,1.48,4.22,1.48
		c0.59,0,1.16-0.07,1.69-0.21c0.53-0.13,1.03-0.3,1.48-0.51c0.46-0.2,0.89-0.44,1.27-0.7c0.15-0.1,0.29-0.2,0.42-0.3l0.03,0.54
		c0,0.52,0.33,0.85,0.85,0.85h1.56v-11.52c0-0.83-0.09-1.59-0.27-2.28C540.07,151.74,539.73,151.11,539.25,150.59z M532.05,158.06
		c0.52-0.18,1.19-0.27,1.99-0.27h3.96v4.52c-0.52,0.5-1.15,0.96-1.88,1.38c-0.75,0.43-1.66,0.65-2.69,0.65s-1.86-0.25-2.46-0.75
		c-0.58-0.48-0.87-1.33-0.87-2.53c0-0.44,0.06-0.87,0.18-1.28c0.11-0.39,0.31-0.73,0.59-1.02
		C531.14,158.48,531.54,158.24,532.05,158.06z"/>
	<path class="st1" d="M553.24,148.83c-0.7,0-1.35,0.07-1.94,0.22c-0.58,0.15-1.12,0.33-1.59,0.54c-0.48,0.22-0.91,0.47-1.27,0.74
		c-0.11,0.08-0.21,0.16-0.31,0.24l-0.03-0.5c0-0.52-0.32-0.85-0.85-0.85h-1.56v16.19c0,0.52,0.32,0.85,0.85,0.85h1.69v-13.06
		c0.19-0.2,0.42-0.41,0.68-0.63c0.31-0.25,0.66-0.49,1.06-0.71c0.39-0.21,0.84-0.39,1.32-0.52c0.47-0.13,0.99-0.2,1.54-0.2
		c1.04,0,1.84,0.28,2.46,0.86c0.6,0.57,0.91,1.55,0.91,2.93v10.48c0,0.52,0.32,0.85,0.85,0.85h1.69v-11.39
		c0-2.08-0.51-3.63-1.51-4.59C556.26,149.32,554.91,148.83,553.24,148.83z"/>
	<path class="st1" d="M579.72,165.75c-0.24-0.55-0.58-1.25-1.01-2.1c-0.44-0.85-0.93-1.75-1.45-2.67c-0.53-0.93-1.1-1.85-1.7-2.75
		c-0.47-0.7-0.94-1.33-1.39-1.9c0.49-0.14,0.96-0.33,1.4-0.55c0.62-0.31,1.17-0.73,1.62-1.25s0.81-1.17,1.06-1.94
		c0.25-0.76,0.38-1.67,0.38-2.72c0-1.09-0.14-2.08-0.41-2.93c-0.28-0.88-0.73-1.62-1.34-2.23c-0.61-0.6-1.4-1.06-2.35-1.37
		c-0.93-0.3-2.07-0.46-3.4-0.46c-1.24,0-2.46,0.06-3.64,0.18c-1.18,0.12-2.17,0.25-2.94,0.38l-0.3,0.05v21.91
		c0,0.52,0.32,0.85,0.85,0.85h1.75v-9.6h4.31c0.6,0.69,1.19,1.45,1.75,2.26c0.61,0.88,1.16,1.74,1.66,2.56
		c0.5,0.82,0.95,1.61,1.34,2.34c0.39,0.72,0.69,1.3,0.89,1.73c0.06,0.14,0.14,0.28,0.25,0.42c0.16,0.2,0.42,0.3,0.77,0.3h2.14
		L579.72,165.75z M575.63,152.14c-0.22,0.57-0.54,1.01-0.93,1.33c-0.4,0.32-0.88,0.54-1.42,0.66c-0.58,0.12-1.23,0.19-1.94,0.19
		h-4.51v-8.74c0.44-0.07,0.96-0.12,1.55-0.17c0.74-0.06,1.67-0.1,2.76-0.1c0.83,0,1.57,0.08,2.2,0.23c0.6,0.15,1.09,0.39,1.47,0.73
		c0.37,0.33,0.66,0.79,0.86,1.36c0.2,0.59,0.3,1.35,0.3,2.25C575.98,150.79,575.86,151.56,575.63,152.14z"/>
	<path class="st1" d="M442.69,131.35c-0.69-1.35-1.47-2.78-2.3-4.24c-0.85-1.49-1.76-2.97-2.71-4.38c-0.48-0.71-0.95-1.38-1.42-2
		c0.36-0.14,0.72-0.3,1.07-0.48c1.09-0.55,2.05-1.29,2.84-2.2c0.79-0.91,1.41-2.05,1.85-3.38c0.42-1.29,0.64-2.83,0.64-4.58
		c0-1.81-0.23-3.46-0.68-4.89c-0.48-1.52-1.27-2.83-2.35-3.89c-1.07-1.04-2.43-1.84-4.06-2.37c-1.56-0.51-3.46-0.76-5.65-0.76
		c-1.98,0-3.93,0.1-5.82,0.29c-1.86,0.19-3.44,0.39-4.69,0.6l-1.26,0.21v35.25c0,1.34,0.94,2.28,2.28,2.28h3.7v-15.1h5.4
		c0.82,0.97,1.63,2.03,2.41,3.15c0.93,1.35,1.8,2.69,2.58,3.97c0.79,1.31,1.49,2.53,2.08,3.64c0.59,1.09,1.05,1.99,1.38,2.68
		c0.12,0.29,0.29,0.57,0.51,0.84c0.3,0.38,0.88,0.83,1.95,0.83h4.82l-0.94-2.12C443.92,133.82,443.38,132.69,442.69,131.35z
		 M436.62,110.11c0,1.33-0.16,2.41-0.48,3.22c-0.3,0.75-0.68,1.3-1.17,1.7c-0.52,0.42-1.12,0.69-1.84,0.85
		c-0.84,0.18-1.8,0.27-2.85,0.27h-6.14v-11.97c0.48-0.06,1-0.11,1.58-0.16c1.14-0.1,2.58-0.15,4.26-0.15c1.23,0,2.32,0.11,3.24,0.34
		c0.79,0.19,1.43,0.51,1.9,0.93c0.47,0.42,0.83,0.99,1.09,1.74C436.47,107.7,436.62,108.79,436.62,110.11z"/>
	<path class="st1" d="M460.68,98.44h-3.71v36.1c0,1.34,0.94,2.28,2.28,2.28h3.7v-36.1C462.95,99.38,462.02,98.44,460.68,98.44z"/>
	<path class="st1" d="M497.37,118.06c-0.96-0.86-2.17-1.6-3.59-2.18c-1.32-0.55-2.91-1.09-4.7-1.6c-1.29-0.4-2.42-0.78-3.34-1.14
		c-0.81-0.31-1.46-0.67-1.95-1.08c-0.42-0.35-0.71-0.76-0.91-1.27c-0.22-0.57-0.33-1.33-0.33-2.26c0-1.65,0.41-2.83,1.25-3.61
		c0.59-0.55,1.99-1.2,5.3-1.2c1.35,0,2.78,0.09,4.23,0.27c1.48,0.18,2.76,0.36,3.8,0.53l1.75,0.28v-3.25c0-1.18-0.64-2.11-1.78-2.52
		c-0.5-0.15-1.08-0.29-1.77-0.42c-0.66-0.12-1.37-0.23-2.12-0.32c-0.75-0.09-1.52-0.15-2.3-0.19c-0.77-0.04-1.48-0.05-2.11-0.05
		c-2.08,0-3.91,0.25-5.44,0.74c-1.58,0.51-2.89,1.24-3.9,2.16c-1.03,0.95-1.79,2.11-2.26,3.44c-0.45,1.26-0.67,2.68-0.67,4.2
		c0,1.79,0.26,3.33,0.78,4.58c0.53,1.28,1.3,2.37,2.29,3.24c0.94,0.82,2.06,1.5,3.33,2.02c1.16,0.48,2.46,0.93,3.85,1.34
		c1.59,0.5,2.94,0.96,4.01,1.37c0.94,0.36,1.67,0.77,2.18,1.21c0.45,0.39,0.76,0.83,0.94,1.35c0.21,0.6,0.32,1.38,0.32,2.33
		c0,0.97-0.11,1.83-0.32,2.56c-0.18,0.62-0.48,1.12-0.91,1.54c-0.43,0.42-1.08,0.76-1.91,1.01c-0.92,0.28-2.14,0.42-3.62,0.42
		c-1.75,0-3.39-0.12-4.89-0.36l-5.71-0.92v3.26c0,1.18,0.64,2.11,1.73,2.5c0.99,0.34,2.29,0.63,4,0.88
		c1.66,0.25,3.37,0.37,5.07,0.37c4.25,0,7.44-0.95,9.49-2.82c2.09-1.91,3.15-4.75,3.15-8.44c0-1.8-0.23-3.34-0.68-4.59
		C499.14,120.11,498.39,118.98,497.37,118.06z"/>
	<path class="st1" d="M535.38,120.94c1.06-1.06,1.88-2.43,2.45-4.07c0.55-1.58,0.82-3.52,0.82-5.75c0-4.45-1.09-7.76-3.24-9.84
		c-2.14-2.06-5.47-3.1-9.9-3.1c-0.88,0-1.79,0.03-2.71,0.08c-0.92,0.05-1.83,0.12-2.72,0.21c-0.88,0.09-1.72,0.18-2.52,0.29
		c-0.8,0.1-1.52,0.21-2.14,0.31l-1.26,0.21v35.25c0,1.34,0.94,2.28,2.28,2.28h3.71v-13.48c0.95,0.15,1.87,0.27,2.75,0.36
		c1.41,0.14,2.69,0.21,3.8,0.21c1.74,0,3.35-0.22,4.77-0.65C532.99,122.8,534.31,122.02,535.38,120.94z M530.88,105.05
		c0.52,0.45,0.94,1.13,1.24,2.02c0.34,1,0.51,2.36,0.51,4.06c0,1.51-0.14,2.77-0.42,3.73c-0.25,0.86-0.62,1.53-1.1,2.01
		c-0.48,0.48-1.07,0.81-1.81,1.01c-1.73,0.48-4.34,0.42-6.77,0.13c-0.82-0.1-1.62-0.22-2.39-0.37v-13.48
		c0.47-0.06,0.98-0.11,1.53-0.16c1.11-0.1,2.42-0.15,3.9-0.15c1.23,0,2.34,0.09,3.31,0.28C529.69,104.3,530.34,104.6,530.88,105.05z
		"/>
	<path class="st1" d="M568.57,128.84c0.79,1.31,1.49,2.53,2.08,3.64c0.58,1.09,1.05,1.99,1.38,2.68c0.12,0.29,0.29,0.58,0.51,0.84
		c0.3,0.38,0.88,0.82,1.95,0.82h4.82l-0.94-2.12c-0.39-0.89-0.94-2.01-1.62-3.34c-0.69-1.34-1.46-2.77-2.3-4.24
		c-0.85-1.49-1.76-2.97-2.71-4.38c-0.47-0.71-0.95-1.38-1.42-2c0.36-0.14,0.72-0.3,1.07-0.48c1.09-0.55,2.05-1.29,2.84-2.2
		c0.79-0.91,1.41-2.05,1.85-3.38c0.42-1.29,0.64-2.83,0.64-4.58c0-1.81-0.23-3.46-0.68-4.89c-0.48-1.52-1.27-2.83-2.35-3.89
		c-1.07-1.04-2.43-1.84-4.06-2.37c-1.56-0.51-3.46-0.76-5.64-0.76c-1.98,0-3.93,0.1-5.82,0.29c-1.86,0.19-3.44,0.39-4.69,0.6
		l-1.26,0.21v35.25c0,1.34,0.94,2.28,2.28,2.28h3.71v-15.1h5.4c0.82,0.97,1.63,2.03,2.41,3.15
		C566.93,126.22,567.79,127.55,568.57,128.84z M570.68,110.11c0,1.33-0.16,2.41-0.48,3.22c-0.3,0.75-0.68,1.3-1.17,1.7
		c-0.52,0.42-1.12,0.69-1.85,0.85c-0.84,0.18-1.8,0.27-2.85,0.27h-6.14v-11.97c0.48-0.06,1-0.11,1.58-0.16
		c1.14-0.1,2.58-0.15,4.26-0.15c1.23,0,2.32,0.11,3.24,0.34c0.79,0.19,1.43,0.51,1.9,0.93c0.47,0.42,0.83,0.99,1.08,1.74
		C570.53,107.7,570.68,108.79,570.68,110.11z"/>
</g>
<g>
	<g>
		<g>
			<path class="st1" d="M1085.07,72.02c12.35,0,23.54,5.01,31.64,13.1l16.16-16.16c-12.23-12.23-29.13-19.8-47.8-19.8
				c-2.25,0-4.47,0.12-6.67,0.33v23.02C1080.57,72.19,1082.8,72.02,1085.07,72.02z"/>
		</g>
		<g>
			<path class="st1" d="M1065.11,76.71V52.16c-1.53,0.47-3.03,1.01-4.5,1.58V79.3C1062.05,78.35,1063.56,77.49,1065.11,76.71z"/>
		</g>
		<g>
			<path class="st1" d="M1047.32,92.75V60.67c-1.55,1.05-3.05,2.17-4.5,3.34v38.03C1043.96,98.75,1045.48,95.64,1047.32,92.75z"/>
		</g>
		<g>
			<path class="st1" d="M1060.61,154.21v25.56c1.48,0.57,2.98,1.11,4.5,1.58V156.8C1063.56,156.02,1062.05,155.16,1060.61,154.21z"
				/>
		</g>
		<g>
			<path class="st1" d="M1042.82,131.48v38.03c1.46,1.17,2.95,2.29,4.5,3.34v-32.07C1045.48,137.88,1043.96,134.77,1042.82,131.48z"
				/>
		</g>
		<g>
			<path class="st1" d="M1085.07,161.5c-2.27,0-4.49-0.17-6.67-0.5v23.02c2.19,0.22,4.42,0.33,6.67,0.33
				c18.67,0,35.56-7.57,47.8-19.8l-16.16-16.16C1108.61,156.49,1097.42,161.5,1085.07,161.5z"/>
		</g>
		<g>
			<path class="st1" d="M1025.03,85.71v62.09c1.34,2.59,2.85,5.09,4.5,7.48V78.24C1027.88,80.62,1026.37,83.12,1025.03,85.71z"/>
		</g>
		<g>
			<path class="st1" d="M1078.4,184.02v2.8h-13.3v-5.46C1069.38,182.67,1073.82,183.58,1078.4,184.02z"/>
			<rect x="1065.11" y="192.37" class="st1" width="13.3" height="3.91"/>
		</g>
		<g>
			<polygon class="st1" points="1071.75,35.81 1071.75,38.59 1078.4,38.59 1078.4,41.5 1065.11,41.5 1065.11,33.03 1078.4,33.03 
				1078.4,35.81 			"/>
			<path class="st1" d="M1065.11,47.06h13.3v2.43c-4.58,0.45-9.03,1.35-13.3,2.67V47.06z"/>
		</g>
		<g>
			<path class="st1" d="M1060.61,179.77v1.49h-13.29v-8.42C1051.45,175.61,1055.91,177.94,1060.61,179.77z"/>
			<rect x="1047.32" y="186.82" class="st1" width="13.29" height="4.95"/>
			<polygon class="st1" points="1060.61,197.32 1060.61,206.35 1047.32,206.35 1047.32,203.39 1053.33,203.39 1053.33,200.61 
				1047.32,200.61 1047.32,197.32 			"/>
		</g>
		<g>
			<path class="st1" d="M1060.61,46.41v7.34c-4.7,1.83-9.15,4.14-13.29,6.93v-7.75h8.3v-2.78h-8.3v-3.74H1060.61z"/>
		</g>
		<g>
			<path class="st1" d="M1042.82,169.5v4.29h-13.29v-4.14h5.32v-2.78h-5.32v-11.61C1033.26,160.64,1037.74,165.43,1042.82,169.5z"/>
			<rect x="1029.53" y="179.35" class="st1" width="13.29" height="1.91"/>
			<rect x="1029.53" y="186.82" class="st1" width="13.29" height="2.4"/>
		</g>
		<g>
			<rect x="1029.53" y="25.94" class="st1" width="13.29" height="4.32"/>
			<polygon class="st1" points="1042.82,35.81 1042.82,46.39 1029.53,46.39 1029.53,44.01 1036.8,44.01 1036.8,41.24 1029.53,41.24 
				1029.53,35.81 			"/>
			<rect x="1029.53" y="51.94" class="st1" width="13.29" height="4.93"/>
			<path class="st1" d="M1029.53,62.43h13.29v1.59c-5.08,4.07-9.56,8.86-13.29,14.22V62.43z"/>
		</g>
		<g>
			<rect x="1011.75" y="61.85" class="st1" width="13.29" height="4.39"/>
			<rect x="1011.75" y="71.79" class="st1" width="13.29" height="1.96"/>
			<path class="st1" d="M1025.03,85.71c-4.83,9.3-7.56,19.85-7.56,31.05c0,11.19,2.73,21.74,7.56,31.04v1.92h-13.29v-8.07h7.8v-2.78
				h-7.8v-16.06h4.12v-2.78h-4.12V93.13h6.01v-2.78h-6.01v-3.84h8.95v-2.78h-8.95V79.3h13.29V85.71z"/>
			<rect x="1011.75" y="155.27" class="st1" width="13.29" height="4.48"/>
		</g>
	</g>
	<g>
		<rect x="1042.82" y="30.25" class="st1" width="5.55" height="5.55"/>
	</g>
	<g>
		<rect x="1023.98" y="46.38" class="st1" width="5.55" height="5.55"/>
	</g>
	<g>
		<rect x="1078.4" y="186.82" class="st1" width="5.55" height="5.55"/>
	</g>
	<g>
		<rect x="1026.76" y="41.24" class="st1" width="2.78" height="2.78"/>
	</g>
	<g>
		<rect x="1078.4" y="35.81" class="st1" width="2.78" height="2.78"/>
	</g>
	<g>
		<rect x="1006.19" y="66.23" class="st1" width="5.55" height="5.55"/>
	</g>
	<g>
		<rect x="1008.97" y="149.72" class="st1" width="2.78" height="5.55"/>
	</g>
	<g>
		<rect x="1021.58" y="173.8" class="st1" width="7.95" height="5.55"/>
	</g>
	<g>
		<rect x="1042.82" y="191.77" class="st1" width="4.5" height="5.55"/>
	</g>
	<g>
		<rect x="1062.11" y="41.5" class="st1" width="3" height="5.55"/>
	</g>
</g>
<g>
	<g>
		<g>
			<path class="st0" d="M813.8,72.02c12.35,0,23.54,5.01,31.64,13.1l16.16-16.16c-12.23-12.23-29.13-19.8-47.8-19.8
				c-2.25,0-4.47,0.12-6.67,0.33v23.02C809.3,72.19,811.53,72.02,813.8,72.02z"/>
		</g>
		<g>
			<path class="st0" d="M793.84,76.71V52.16c-1.53,0.47-3.03,1.01-4.5,1.58V79.3C790.78,78.35,792.29,77.49,793.84,76.71z"/>
		</g>
		<g>
			<path class="st0" d="M776.05,92.75V60.67c-1.55,1.05-3.05,2.17-4.5,3.34v38.03C772.69,98.75,774.21,95.64,776.05,92.75z"/>
		</g>
		<g>
			<path class="st0" d="M789.34,154.21v25.56c1.48,0.57,2.98,1.11,4.5,1.58V156.8C792.29,156.02,790.78,155.16,789.34,154.21z"/>
		</g>
		<g>
			<path class="st0" d="M771.55,131.48v38.03c1.46,1.17,2.95,2.29,4.5,3.34v-32.07C774.21,137.88,772.69,134.77,771.55,131.48z"/>
		</g>
		<g>
			<path class="st0" d="M813.8,161.5c-2.27,0-4.49-0.17-6.67-0.5v23.02c2.19,0.22,4.42,0.33,6.67,0.33c18.67,0,35.56-7.57,47.8-19.8
				l-16.16-16.16C837.34,156.49,826.15,161.5,813.8,161.5z"/>
		</g>
		<g>
			<path class="st0" d="M753.76,85.71v62.09c1.34,2.59,2.85,5.09,4.5,7.48V78.24C756.61,80.62,755.1,83.12,753.76,85.71z"/>
		</g>
		<g>
			<path class="st0" d="M807.13,184.02v2.8h-13.3v-5.46C798.11,182.67,802.55,183.58,807.13,184.02z"/>
			<rect x="793.84" y="192.37" class="st0" width="13.3" height="3.91"/>
		</g>
		<g>
			<polygon class="st0" points="800.48,35.81 800.48,38.59 807.13,38.59 807.13,41.5 793.84,41.5 793.84,33.03 807.13,33.03 
				807.13,35.81 			"/>
			<path class="st0" d="M793.84,47.06h13.3v2.43c-4.58,0.45-9.03,1.35-13.3,2.67V47.06z"/>
		</g>
		<g>
			<path class="st0" d="M789.34,179.77v1.49h-13.29v-8.42C780.18,175.61,784.64,177.94,789.34,179.77z"/>
			<rect x="776.05" y="186.82" class="st0" width="13.29" height="4.95"/>
			<polygon class="st0" points="789.34,197.32 789.34,206.35 776.05,206.35 776.05,203.39 782.06,203.39 782.06,200.61 
				776.05,200.61 776.05,197.32 			"/>
		</g>
		<g>
			<path class="st0" d="M789.34,46.41v7.34c-4.7,1.83-9.15,4.14-13.29,6.93v-7.75h8.3v-2.78h-8.3v-3.74H789.34z"/>
		</g>
		<g>
			<path class="st0" d="M771.55,169.5v4.29h-13.29v-4.14h5.32v-2.78h-5.32v-11.61C761.99,160.64,766.47,165.43,771.55,169.5z"/>
			<rect x="758.26" y="179.35" class="st0" width="13.29" height="1.91"/>
			<rect x="758.26" y="186.82" class="st0" width="13.29" height="2.4"/>
		</g>
		<g>
			<rect x="758.26" y="25.94" class="st0" width="13.29" height="4.32"/>
			<polygon class="st0" points="771.55,35.81 771.55,46.39 758.26,46.39 758.26,44.01 765.53,44.01 765.53,41.24 758.26,41.24 
				758.26,35.81 			"/>
			<rect x="758.26" y="51.94" class="st0" width="13.29" height="4.93"/>
			<path class="st0" d="M758.26,62.43h13.29v1.59c-5.08,4.07-9.56,8.86-13.29,14.22V62.43z"/>
		</g>
		<g>
			<rect x="740.48" y="61.85" class="st0" width="13.29" height="4.39"/>
			<rect x="740.48" y="71.79" class="st0" width="13.29" height="1.96"/>
			<path class="st0" d="M753.76,85.71c-4.83,9.3-7.56,19.85-7.56,31.05c0,11.19,2.73,21.74,7.56,31.04v1.92h-13.29v-8.07h7.8v-2.78
				h-7.8v-16.06h4.12v-2.78h-4.12V93.13h6.01v-2.78h-6.01v-3.84h8.95v-2.78h-8.95V79.3h13.29V85.71z"/>
			<rect x="740.48" y="155.27" class="st0" width="13.29" height="4.48"/>
		</g>
	</g>
	<g>
		<rect x="771.55" y="30.25" class="st0" width="5.55" height="5.55"/>
	</g>
	<g>
		<rect x="752.71" y="46.38" class="st0" width="5.55" height="5.55"/>
	</g>
	<g>
		<rect x="807.13" y="186.82" class="st0" width="5.55" height="5.55"/>
	</g>
	<g>
		<rect x="755.48" y="41.24" class="st0" width="2.78" height="2.78"/>
	</g>
	<g>
		<rect x="807.13" y="35.81" class="st0" width="2.78" height="2.78"/>
	</g>
	<g>
		<rect x="734.92" y="66.23" class="st0" width="5.55" height="5.55"/>
	</g>
	<g>
		<rect x="737.69" y="149.72" class="st0" width="2.78" height="5.55"/>
	</g>
	<g>
		<rect x="750.31" y="173.8" class="st0" width="7.95" height="5.55"/>
	</g>
	<g>
		<rect x="771.55" y="191.77" class="st0" width="4.5" height="5.55"/>
	</g>
	<g>
		<rect x="790.84" y="41.5" class="st0" width="3" height="5.55"/>
	</g>
</g>
<g>
	<g>
		<g>
			<path class="st0" d="M108.44,72.02c12.35,0,23.54,5.01,31.64,13.1l16.16-16.16c-12.23-12.23-29.13-19.8-47.8-19.8
				c-2.25,0-4.47,0.12-6.67,0.33v23.02C103.94,72.19,106.17,72.02,108.44,72.02z"/>
		</g>
		<g>
			<path class="st0" d="M88.48,76.71V52.16c-1.53,0.47-3.03,1.01-4.5,1.58V79.3C85.42,78.35,86.93,77.49,88.48,76.71z"/>
		</g>
		<g>
			<path class="st0" d="M70.69,92.75V60.67c-1.55,1.05-3.05,2.17-4.5,3.34v38.03C67.33,98.75,68.85,95.64,70.69,92.75z"/>
		</g>
		<g>
			<path class="st0" d="M83.98,154.21v25.56c1.48,0.57,2.98,1.11,4.5,1.58V156.8C86.93,156.02,85.42,155.16,83.98,154.21z"/>
		</g>
		<g>
			<path class="st0" d="M66.19,131.48v38.03c1.46,1.17,2.95,2.29,4.5,3.34v-32.07C68.85,137.88,67.33,134.77,66.19,131.48z"/>
		</g>
		<g>
			<path class="st0" d="M108.44,161.5c-2.27,0-4.49-0.17-6.67-0.5v23.02c2.19,0.22,4.42,0.33,6.67,0.33
				c18.67,0,35.56-7.57,47.8-19.8l-16.16-16.16C131.98,156.49,120.79,161.5,108.44,161.5z"/>
		</g>
		<g>
			<path class="st0" d="M48.4,85.71v62.09c1.34,2.59,2.85,5.09,4.5,7.48V78.24C51.24,80.62,49.74,83.12,48.4,85.71z"/>
		</g>
		<g>
			<path class="st0" d="M101.77,184.02v2.8h-13.3v-5.46C92.75,182.67,97.19,183.58,101.77,184.02z"/>
			<rect x="88.48" y="192.37" class="st0" width="13.3" height="3.91"/>
		</g>
		<g>
			<polygon class="st0" points="95.12,35.81 95.12,38.59 101.77,38.59 101.77,41.5 88.48,41.5 88.48,33.03 101.77,33.03 
				101.77,35.81 			"/>
			<path class="st0" d="M88.48,47.06h13.3v2.43c-4.58,0.45-9.03,1.35-13.3,2.67V47.06z"/>
		</g>
		<g>
			<path class="st0" d="M83.97,179.77v1.49H70.69v-8.42C74.82,175.61,79.28,177.94,83.97,179.77z"/>
			<rect x="70.69" y="186.82" class="st0" width="13.29" height="4.95"/>
			<polygon class="st0" points="83.97,197.32 83.97,206.35 70.69,206.35 70.69,203.39 76.7,203.39 76.7,200.61 70.69,200.61 
				70.69,197.32 			"/>
		</g>
		<g>
			<path class="st0" d="M83.97,46.41v7.34c-4.7,1.83-9.15,4.14-13.29,6.93v-7.75h8.3v-2.78h-8.3v-3.74H83.97z"/>
		</g>
		<g>
			<path class="st0" d="M66.19,169.5v4.29H52.9v-4.14h5.32v-2.78H52.9v-11.61C56.63,160.64,61.11,165.43,66.19,169.5z"/>
			<rect x="52.9" y="179.35" class="st0" width="13.29" height="1.91"/>
			<rect x="52.9" y="186.82" class="st0" width="13.29" height="2.4"/>
		</g>
		<g>
			<rect x="52.9" y="25.94" class="st0" width="13.29" height="4.32"/>
			<polygon class="st0" points="66.19,35.81 66.19,46.39 52.9,46.39 52.9,44.01 60.17,44.01 60.17,41.24 52.9,41.24 52.9,35.81 			
				"/>
			<rect x="52.9" y="51.94" class="st0" width="13.29" height="4.93"/>
			<path class="st0" d="M52.9,62.43h13.29v1.59c-5.08,4.07-9.56,8.86-13.29,14.22V62.43z"/>
		</g>
		<g>
			<rect x="35.12" y="61.85" class="st0" width="13.29" height="4.39"/>
			<rect x="35.12" y="71.79" class="st0" width="13.29" height="1.96"/>
			<path class="st0" d="M48.4,85.71c-4.83,9.3-7.56,19.85-7.56,31.05c0,11.19,2.73,21.74,7.56,31.04v1.92H35.12v-8.07h7.8v-2.78
				h-7.8v-16.06h4.12v-2.78h-4.12V93.13h6.01v-2.78h-6.01v-3.84h8.95v-2.78h-8.95V79.3H48.4V85.71z"/>
			<rect x="35.12" y="155.27" class="st0" width="13.29" height="4.48"/>
		</g>
	</g>
	<g>
		<rect x="66.19" y="30.25" class="st0" width="5.55" height="5.55"/>
	</g>
	<g>
		<rect x="47.35" y="46.38" class="st0" width="5.55" height="5.55"/>
	</g>
	<g>
		<rect x="101.77" y="186.82" class="st0" width="5.55" height="5.55"/>
	</g>
	<g>
		<rect x="50.12" y="41.24" class="st0" width="2.78" height="2.78"/>
	</g>
	<g>
		<rect x="101.77" y="35.81" class="st0" width="2.78" height="2.78"/>
	</g>
	<g>
		<rect x="29.56" y="66.23" class="st0" width="5.55" height="5.55"/>
	</g>
	<g>
		<rect x="32.33" y="149.72" class="st0" width="2.78" height="5.55"/>
	</g>
	<g>
		<rect x="44.95" y="173.8" class="st0" width="7.95" height="5.55"/>
	</g>
	<g>
		<rect x="66.19" y="191.77" class="st0" width="4.5" height="5.55"/>
	</g>
	<g>
		<rect x="85.48" y="41.5" class="st0" width="3" height="5.55"/>
	</g>
</g>
<g>
	<path class="st0" d="M176.28,163.88c-0.29,0-0.74,0.06-1.38,0.19c-1.09,0.21-2.65,0.28-3.83-0.09c-0.52-0.16-0.95-0.46-1.32-0.92
		c-0.38-0.46-0.67-1.13-0.89-1.97c-0.22-0.87-0.33-2.01-0.33-3.4c0-1.26,0.1-2.33,0.28-3.18c0.18-0.82,0.46-1.48,0.81-1.95
		c0.35-0.47,0.78-0.8,1.3-1c0.99-0.38,2.41-0.37,3.73-0.21c0.61,0.08,1.26,0.17,1.95,0.27l0.42,0.06v-1.33
		c0-0.43-0.23-0.76-0.62-0.91c-0.16-0.08-0.39-0.15-0.69-0.21c-0.28-0.05-0.59-0.11-0.93-0.15c-0.34-0.04-0.7-0.08-1.09-0.12
		c-0.39-0.03-0.75-0.05-1.08-0.05c-2.18,0-3.86,0.72-4.99,2.13c-1.11,1.39-1.67,3.66-1.67,6.76c0,1.27,0.11,2.45,0.32,3.49
		c0.21,1.07,0.58,2,1.09,2.77c0.52,0.79,1.22,1.4,2.09,1.83c0.86,0.42,1.92,0.64,3.16,0.64c0.71,0,1.48-0.06,2.31-0.18
		c0.83-0.12,1.5-0.27,2-0.46l0.24-0.09v-1.1c0-0.18-0.06-0.36-0.18-0.53C176.88,164.05,176.68,163.88,176.28,163.88z"/>
	<path class="st0" d="M185.82,164.11h-0.68c-0.58,0-0.86-0.1-0.99-0.18c-0.02-0.01-0.21-0.16-0.21-0.98v-19.85
		c0-0.52-0.32-0.85-0.85-0.85h-1.69v20.77c0,0.99,0.25,1.8,0.74,2.42c0.51,0.64,1.3,0.96,2.34,0.96c0.32,0,0.66-0.03,1.01-0.09
		c0.34-0.05,0.62-0.1,0.84-0.15l0.29-0.06v-1.17c0-0.18-0.05-0.35-0.16-0.51C186.38,164.28,186.19,164.11,185.82,164.11z"/>
	<path class="st0" d="M202.13,150.98c-0.46-0.67-1.11-1.2-1.93-1.58c-0.81-0.38-1.85-0.57-3.09-0.57c-1.1,0-2.09,0.17-2.94,0.49
		c-0.87,0.33-1.61,0.87-2.19,1.6c-0.58,0.72-1.03,1.66-1.32,2.8c-0.29,1.12-0.43,2.5-0.43,4.1c0,1.56,0.15,2.9,0.43,4
		c0.29,1.12,0.75,2.04,1.36,2.74c0.61,0.71,1.4,1.22,2.35,1.53c0.92,0.3,2.02,0.46,3.26,0.46h0h0c0.95-0.02,1.88-0.09,2.75-0.2
		c0.89-0.11,1.57-0.26,2.07-0.44l0.24-0.09v-1.1c0-0.18-0.06-0.36-0.18-0.53c-0.1-0.14-0.3-0.32-0.7-0.32
		c-0.29,0-0.75,0.06-1.41,0.18c-0.61,0.11-1.44,0.17-2.48,0.17c-1.04,0-1.9-0.11-2.55-0.32c-0.62-0.2-1.12-0.53-1.47-0.97
		c-0.36-0.45-0.63-1.05-0.79-1.77c-0.15-0.66-0.26-1.46-0.32-2.38H203l0.07-0.27c0.07-0.28,0.12-0.63,0.17-1.09
		c0.04-0.44,0.07-0.89,0.07-1.33c0-0.99-0.08-1.93-0.25-2.79C202.89,152.42,202.58,151.64,202.13,150.98z M197.11,151.14
		c0.79,0,1.43,0.1,1.9,0.31c0.46,0.2,0.82,0.49,1.08,0.87c0.27,0.38,0.46,0.89,0.56,1.5c0.1,0.65,0.16,1.4,0.16,2.25v0.41
		c0,0.03,0,0.05,0,0.08h-8.02c0.03-0.72,0.11-1.4,0.24-2.02c0.14-0.7,0.38-1.31,0.71-1.82c0.32-0.49,0.75-0.88,1.29-1.16
		C195.56,151.28,196.26,151.14,197.11,151.14z"/>
	<path class="st0" d="M218.64,150.59c-0.48-0.53-1.15-0.94-1.98-1.23c-1.33-0.46-3.27-0.52-5.63-0.29c-0.93,0.09-1.83,0.26-2.69,0.5
		l-0.26,0.07v1.05c0,0.56,0.34,0.91,0.88,0.91c0.31,0,0.85-0.07,1.67-0.2c0.76-0.13,1.64-0.19,2.62-0.19c0.81,0,1.5,0.06,2.04,0.19
		c0.52,0.12,0.94,0.31,1.25,0.56c0.3,0.25,0.51,0.58,0.65,1.01c0.14,0.46,0.21,1.04,0.21,1.71v0.91h-3.89
		c-2.04,0-3.64,0.43-4.74,1.27c-1.14,0.87-1.71,2.3-1.71,4.24c0,1.69,0.46,3.04,1.36,4.01c0.91,0.98,2.33,1.48,4.22,1.48
		c0.59,0,1.16-0.07,1.69-0.21c0.53-0.13,1.03-0.3,1.48-0.51c0.46-0.2,0.89-0.44,1.27-0.7c0.15-0.1,0.29-0.2,0.42-0.3l0.03,0.54
		c0,0.52,0.33,0.85,0.85,0.85h1.56v-11.52c0-0.83-0.09-1.59-0.27-2.28C219.46,151.74,219.12,151.11,218.64,150.59z M211.44,158.06
		c0.52-0.18,1.19-0.27,1.99-0.27h3.96v4.52c-0.52,0.5-1.15,0.96-1.88,1.38c-0.75,0.43-1.66,0.65-2.69,0.65s-1.86-0.25-2.46-0.75
		c-0.58-0.48-0.87-1.33-0.87-2.53c0-0.44,0.06-0.87,0.18-1.28c0.11-0.39,0.31-0.73,0.59-1.02
		C210.53,158.48,210.93,158.24,211.44,158.06z"/>
	<path class="st0" d="M232.63,148.83c-0.7,0-1.35,0.07-1.94,0.22c-0.58,0.15-1.12,0.33-1.59,0.54c-0.48,0.22-0.91,0.47-1.27,0.74
		c-0.11,0.08-0.21,0.16-0.31,0.24l-0.03-0.5c0-0.52-0.32-0.85-0.85-0.85h-1.56v16.19c0,0.52,0.32,0.85,0.85,0.85h1.69v-13.06
		c0.19-0.2,0.42-0.41,0.68-0.63c0.31-0.25,0.66-0.49,1.06-0.71c0.39-0.21,0.84-0.39,1.32-0.52c0.47-0.13,0.99-0.2,1.54-0.2
		c1.04,0,1.84,0.28,2.46,0.86c0.6,0.57,0.91,1.55,0.91,2.93v10.48c0,0.52,0.32,0.85,0.85,0.85h1.69v-11.39
		c0-2.08-0.51-3.63-1.51-4.59C235.65,149.32,234.3,148.83,232.63,148.83z"/>
	<path class="st0" d="M259.11,165.75c-0.24-0.55-0.58-1.25-1.01-2.1c-0.44-0.85-0.93-1.75-1.45-2.67c-0.53-0.93-1.1-1.85-1.7-2.75
		c-0.47-0.7-0.94-1.33-1.39-1.9c0.49-0.14,0.96-0.33,1.4-0.55c0.62-0.31,1.17-0.73,1.62-1.25s0.81-1.17,1.06-1.94
		c0.25-0.76,0.38-1.67,0.38-2.72c0-1.09-0.14-2.08-0.41-2.93c-0.28-0.88-0.73-1.62-1.34-2.23c-0.61-0.6-1.4-1.06-2.35-1.37
		c-0.93-0.3-2.07-0.46-3.4-0.46c-1.24,0-2.46,0.06-3.64,0.18c-1.18,0.12-2.17,0.25-2.94,0.38l-0.3,0.05v21.91
		c0,0.52,0.32,0.85,0.85,0.85h1.75v-9.6h4.31c0.6,0.69,1.19,1.45,1.75,2.26c0.61,0.88,1.16,1.74,1.66,2.56
		c0.5,0.82,0.95,1.61,1.34,2.34c0.39,0.72,0.69,1.3,0.89,1.73c0.06,0.14,0.14,0.28,0.25,0.42c0.16,0.2,0.42,0.3,0.77,0.3h2.14
		L259.11,165.75z M255.02,152.14c-0.22,0.57-0.54,1.01-0.93,1.33c-0.4,0.32-0.88,0.54-1.42,0.66c-0.58,0.12-1.23,0.19-1.94,0.19
		h-4.51v-8.74c0.44-0.07,0.96-0.12,1.55-0.17c0.74-0.06,1.67-0.1,2.76-0.1c0.83,0,1.57,0.08,2.2,0.23c0.6,0.15,1.09,0.39,1.47,0.73
		c0.37,0.33,0.66,0.79,0.86,1.36c0.2,0.59,0.3,1.35,0.3,2.25C255.37,150.79,255.25,151.56,255.02,152.14z"/>
	<path class="st0" d="M122.08,131.35c-0.69-1.35-1.47-2.78-2.3-4.24c-0.85-1.49-1.76-2.97-2.71-4.38c-0.48-0.71-0.95-1.38-1.42-2
		c0.36-0.14,0.72-0.3,1.07-0.48c1.09-0.55,2.05-1.29,2.84-2.2c0.79-0.91,1.41-2.05,1.85-3.38c0.42-1.29,0.64-2.83,0.64-4.58
		c0-1.81-0.23-3.46-0.68-4.89c-0.48-1.52-1.27-2.83-2.35-3.89c-1.07-1.04-2.43-1.84-4.06-2.37c-1.56-0.51-3.46-0.76-5.65-0.76
		c-1.98,0-3.93,0.1-5.82,0.29c-1.86,0.19-3.44,0.39-4.69,0.6l-1.26,0.21v35.25c0,1.34,0.94,2.28,2.28,2.28h3.7v-15.1h5.4
		c0.82,0.97,1.63,2.03,2.41,3.15c0.93,1.35,1.8,2.69,2.58,3.97c0.79,1.31,1.49,2.53,2.08,3.64c0.59,1.09,1.05,1.99,1.38,2.68
		c0.12,0.29,0.29,0.57,0.51,0.84c0.3,0.38,0.88,0.83,1.95,0.83h4.82l-0.94-2.12C123.31,133.82,122.76,132.69,122.08,131.35z
		 M116.01,110.11c0,1.33-0.16,2.41-0.48,3.22c-0.3,0.75-0.68,1.3-1.17,1.7c-0.52,0.42-1.12,0.69-1.84,0.85
		c-0.84,0.18-1.8,0.27-2.85,0.27h-6.14v-11.97c0.48-0.06,1-0.11,1.58-0.16c1.14-0.1,2.58-0.15,4.26-0.15c1.23,0,2.32,0.11,3.24,0.34
		c0.79,0.19,1.43,0.51,1.9,0.93c0.47,0.42,0.83,0.99,1.09,1.74C115.86,107.7,116.01,108.79,116.01,110.11z"/>
	<path class="st0" d="M140.07,98.44h-3.71v36.1c0,1.34,0.94,2.28,2.28,2.28h3.7v-36.1C142.34,99.38,141.41,98.44,140.07,98.44z"/>
	<path class="st0" d="M176.76,118.06c-0.96-0.86-2.17-1.6-3.59-2.18c-1.32-0.55-2.91-1.09-4.7-1.6c-1.29-0.4-2.42-0.78-3.34-1.14
		c-0.81-0.31-1.46-0.67-1.95-1.08c-0.42-0.35-0.71-0.76-0.91-1.27c-0.22-0.57-0.33-1.33-0.33-2.26c0-1.65,0.41-2.83,1.25-3.61
		c0.59-0.55,1.99-1.2,5.3-1.2c1.35,0,2.78,0.09,4.23,0.27c1.48,0.18,2.76,0.36,3.8,0.53l1.75,0.28v-3.25c0-1.18-0.64-2.11-1.78-2.52
		c-0.5-0.15-1.08-0.29-1.77-0.42c-0.66-0.12-1.37-0.23-2.12-0.32c-0.75-0.09-1.52-0.15-2.3-0.19c-0.77-0.04-1.48-0.05-2.11-0.05
		c-2.08,0-3.91,0.25-5.44,0.74c-1.58,0.51-2.89,1.24-3.9,2.16c-1.03,0.95-1.79,2.11-2.26,3.44c-0.45,1.26-0.67,2.68-0.67,4.2
		c0,1.79,0.26,3.33,0.78,4.58c0.53,1.28,1.3,2.37,2.29,3.24c0.94,0.82,2.06,1.5,3.33,2.02c1.16,0.48,2.46,0.93,3.85,1.34
		c1.59,0.5,2.94,0.96,4.01,1.37c0.94,0.36,1.67,0.77,2.18,1.21c0.45,0.39,0.76,0.83,0.94,1.35c0.21,0.6,0.32,1.38,0.32,2.33
		c0,0.97-0.11,1.83-0.32,2.56c-0.18,0.62-0.48,1.12-0.91,1.54c-0.43,0.42-1.08,0.76-1.91,1.01c-0.92,0.28-2.14,0.42-3.62,0.42
		c-1.75,0-3.39-0.12-4.89-0.36l-5.71-0.92v3.26c0,1.18,0.64,2.11,1.73,2.5c0.99,0.34,2.29,0.63,4,0.88
		c1.66,0.25,3.37,0.37,5.07,0.37c4.25,0,7.44-0.95,9.49-2.82c2.09-1.91,3.15-4.75,3.15-8.44c0-1.8-0.23-3.34-0.68-4.59
		C178.53,120.11,177.77,118.98,176.76,118.06z"/>
	<path class="st0" d="M214.77,120.94c1.06-1.06,1.88-2.43,2.45-4.07c0.55-1.58,0.82-3.52,0.82-5.75c0-4.45-1.09-7.76-3.24-9.84
		c-2.14-2.06-5.47-3.1-9.9-3.1c-0.88,0-1.79,0.03-2.71,0.08c-0.92,0.05-1.83,0.12-2.72,0.21c-0.88,0.09-1.72,0.18-2.52,0.29
		c-0.8,0.1-1.52,0.21-2.14,0.31l-1.26,0.21v35.25c0,1.34,0.94,2.28,2.28,2.28h3.71v-13.48c0.95,0.15,1.87,0.27,2.75,0.36
		c1.41,0.14,2.69,0.21,3.8,0.21c1.74,0,3.35-0.22,4.77-0.65C212.38,122.8,213.7,122.02,214.77,120.94z M210.27,105.05
		c0.52,0.45,0.94,1.13,1.24,2.02c0.34,1,0.51,2.36,0.51,4.06c0,1.51-0.14,2.77-0.42,3.73c-0.25,0.86-0.62,1.53-1.1,2.01
		c-0.48,0.48-1.07,0.81-1.81,1.01c-1.73,0.48-4.34,0.42-6.77,0.13c-0.82-0.1-1.62-0.22-2.39-0.37v-13.48
		c0.47-0.06,0.98-0.11,1.53-0.16c1.11-0.1,2.42-0.15,3.9-0.15c1.23,0,2.34,0.09,3.31,0.28C209.08,104.3,209.73,104.6,210.27,105.05z
		"/>
	<path class="st0" d="M247.96,128.84c0.79,1.31,1.49,2.53,2.08,3.64c0.58,1.09,1.05,1.99,1.38,2.68c0.12,0.29,0.29,0.58,0.51,0.84
		c0.3,0.38,0.88,0.82,1.95,0.82h4.82l-0.94-2.12c-0.39-0.89-0.94-2.01-1.62-3.34c-0.69-1.34-1.46-2.77-2.3-4.24
		c-0.85-1.49-1.76-2.97-2.71-4.38c-0.47-0.71-0.95-1.38-1.42-2c0.36-0.14,0.72-0.3,1.07-0.48c1.09-0.55,2.05-1.29,2.84-2.2
		c0.79-0.91,1.41-2.05,1.85-3.38c0.42-1.29,0.64-2.83,0.64-4.58c0-1.81-0.23-3.46-0.68-4.89c-0.48-1.52-1.27-2.83-2.35-3.89
		c-1.07-1.04-2.43-1.84-4.06-2.37c-1.56-0.51-3.46-0.76-5.64-0.76c-1.98,0-3.93,0.1-5.82,0.29c-1.86,0.19-3.44,0.39-4.69,0.6
		l-1.26,0.21v35.25c0,1.34,0.94,2.28,2.28,2.28h3.71v-15.1h5.4c0.82,0.97,1.63,2.03,2.41,3.15
		C246.32,126.22,247.18,127.55,247.96,128.84z M250.06,110.11c0,1.33-0.16,2.41-0.48,3.22c-0.3,0.75-0.68,1.3-1.17,1.7
		c-0.52,0.42-1.12,0.69-1.85,0.85c-0.84,0.18-1.8,0.27-2.85,0.27h-6.14v-11.97c0.48-0.06,1-0.11,1.58-0.16
		c1.14-0.1,2.58-0.15,4.26-0.15c1.23,0,2.32,0.11,3.24,0.34c0.79,0.19,1.43,0.51,1.9,0.93c0.47,0.42,0.83,0.99,1.08,1.74
		C249.92,107.7,250.06,108.79,250.06,110.11z"/>
</g>
</svg>
