<?xml version="1.0" encoding="utf-8"?>
<svg viewBox="0 0 809.99377 195.32912" xmlns="http://www.w3.org/2000/svg">
  <defs>
    <clipPath id="clipPath2041" clipPathUnits="userSpaceOnUse">
      <path id="path2039" d="m 547.087,334.534 h 168.189 v 40.559 H 547.087 Z"/>
    </clipPath>
  </defs>
  <g id="layer1" transform="matrix(1, 0, 0, 1, 261.743927, -23.750692)">
    <g id="g4306" transform="matrix(13.651644,0,0,13.651644,1472.4177,1460.9543)">
      <g transform="matrix(0.35277777,0,0,-0.35277777,-99.912716,-95.801986)" id="g2031">
        <path id="path2033" style="fill-opacity: 1; fill-rule: nonzero; stroke: none; fill: rgb(255, 255, 255);" d="M 0,0 V 4.21 H -3.925 V 0 h -2.434 v 10.072 h 2.434 V 6.26 H 0 v 3.812 H 2.432 V 0 Z"/>
      </g>
      <g transform="matrix(0.35277777,0,0,-0.35277777,-320.02964,27.04751)" id="g2035">
        <g clip-path="url(#clipPath2041)" id="g2037">
          <g transform="translate(636.692,350.3762)" id="g2043">
            <path id="path2045" style="fill-opacity: 1; fill-rule: nonzero; stroke: none; fill: rgb(255, 255, 255);" d="M 0,0 C -0.204,-0.498 -0.496,-0.923 -0.875,-1.281 -1.254,-1.636 -1.712,-1.913 -2.248,-2.112 -2.783,-2.31 -3.379,-2.41 -4.034,-2.41 c -0.663,0 -1.259,0.1 -1.792,0.298 -0.53,0.199 -0.981,0.476 -1.352,0.831 C -7.546,-0.923 -7.83,-0.498 -8.03,0 -8.23,0.497 -8.328,1.05 -8.328,1.659 V 7.93 h 2.416 V 1.858 c 0,-0.277 0.037,-0.538 0.108,-0.785 0.071,-0.247 0.18,-0.466 0.328,-0.659 0.145,-0.195 0.341,-0.348 0.583,-0.464 0.242,-0.113 0.533,-0.171 0.874,-0.171 0.342,0 0.633,0.058 0.875,0.171 0.242,0.116 0.439,0.269 0.59,0.464 0.151,0.193 0.261,0.412 0.328,0.659 0.065,0.247 0.1,0.508 0.1,0.785 V 7.93 H 0.305 V 1.659 C 0.305,1.05 0.204,0.497 0,0"/>
          </g>
          <g transform="translate(648.0927,348.2348)" id="g2047">
            <path id="path2049" style="fill-opacity: 1; fill-rule: nonzero; stroke: none; fill: rgb(255, 255, 255);" d="M 0,0 0.057,7.129 H 0.014 L -2.603,0 H -4.309 L -6.856,7.129 H -6.899 L -6.842,0 h -2.29 v 10.072 h 3.461 l 2.293,-6.459 h 0.057 l 2.193,6.459 H 2.391 V 0 Z"/>
          </g>
          <g transform="translate(656.6708,355.6183)" id="g2051">
            <path id="path2053" style="fill-opacity: 1; fill-rule: nonzero; stroke: none; fill: rgb(255, 255, 255);" d="M 0,0 -1.279,-3.455 H 1.252 Z M 2.703,-7.382 1.92,-5.405 h -3.898 l -0.739,-1.977 h -2.646 l 4.224,10.07 h 2.361 l 4.183,-10.07 z"/>
          </g>
          <g transform="translate(669.3162,348.2348)" id="g2055">
            <path id="path2057" style="fill-opacity: 1; fill-rule: nonzero; stroke: none; fill: rgb(255, 255, 255);" d="M 0,0 -4.054,6.587 H -4.097 L -4.041,0 h -2.361 v 10.072 h 2.775 L 0.413,3.501 H 0.456 L 0.398,10.072 H 2.759 V 0 Z"/>
          </g>
          <g transform="translate(622.8716,342.7971)" id="g2059">
            <path id="path2061" style="fill-opacity: 1; fill-rule: nonzero; stroke: none; fill: rgb(255, 255, 255);" d="M 0,0 V -7.992 H -2.434 V 0 h -2.842 v 2.077 h 8.12 L 2.844,0 Z"/>
          </g>
          <g transform="translate(626.8249,334.8046)" id="g2063">
            <path id="path2065" style="fill-opacity: 1; fill-rule: nonzero; stroke: none; fill: rgb(255, 255, 255);" d="M 0,0 V 10.069 H 6.77 V 8.023 H 2.348 V 6.116 h 4.18 V 4.167 H 2.348 V 2.076 H 7.026 V 0 Z"/>
          </g>
          <g transform="translate(642.6689,334.9816)" id="g2067">
            <path id="path2069" style="fill-opacity: 1; fill-rule: nonzero; stroke: none; fill: rgb(255, 255, 255);" d="m 0,0 c -0.655,-0.298 -1.408,-0.447 -2.261,-0.447 -0.778,0 -1.496,0.126 -2.156,0.384 -0.659,0.255 -1.229,0.619 -1.714,1.087 -0.483,0.47 -0.862,1.034 -1.138,1.685 -0.274,0.655 -0.411,1.376 -0.411,2.163 0,0.806 0.14,1.536 0.419,2.19 0.28,0.655 0.666,1.211 1.16,1.671 0.492,0.46 1.07,0.813 1.735,1.06 0.664,0.247 1.379,0.369 2.147,0.369 0.711,0 1.411,-0.126 2.097,-0.376 C 0.568,9.534 1.123,9.167 1.55,8.683 L -0.099,7.034 C -0.327,7.346 -0.626,7.579 -0.996,7.73 -1.366,7.881 -1.744,7.959 -2.133,7.959 -2.56,7.959 -2.952,7.879 -3.306,7.725 -3.662,7.567 -3.968,7.351 -4.225,7.078 -4.481,6.801 -4.679,6.478 -4.822,6.101 -4.964,5.728 -5.035,5.318 -5.035,4.872 c 0,-0.456 0.071,-0.873 0.213,-1.252 0.143,-0.378 0.339,-0.705 0.59,-0.974 0.252,-0.271 0.552,-0.482 0.904,-0.633 0.351,-0.151 0.735,-0.227 1.152,-0.227 0.484,0 0.906,0.094 1.266,0.284 0.36,0.191 0.649,0.438 0.867,0.739 L 1.65,1.217 C 1.204,0.705 0.655,0.299 0,0"/>
          </g>
          <g transform="translate(651.7151,334.8046)" id="g2071">
            <path id="path2073" style="fill-opacity: 1; fill-rule: nonzero; stroke: none; fill: rgb(255, 255, 255);" d="M 0,0 V 4.21 H -3.925 V 0 h -2.433 v 10.069 h 2.433 V 6.259 H 0 v 3.81 H 2.431 V 0 Z"/>
          </g>
          <g transform="translate(662.6232,334.8046)" id="g2075">
            <path id="path2077" style="fill-opacity: 1; fill-rule: nonzero; stroke: none; fill: rgb(255, 255, 255);" d="M 0,0 -4.053,6.584 H -4.098 L -4.04,0 h -2.361 v 10.069 h 2.774 L 0.413,3.5 h 0.042 l -0.057,6.569 h 2.36 V 0 Z"/>
          </g>
          <g transform="translate(675.3524,339.8813)" id="g2079">
            <path id="path2081" style="fill-opacity: 1; fill-rule: nonzero; stroke: none; fill: rgb(255, 255, 255);" d="M 0,0 C 0,0.436 -0.072,0.844 -0.212,1.223 -0.355,1.604 -0.552,1.928 -0.804,2.199 -1.055,2.468 -1.358,2.68 -1.713,2.838 -2.069,2.995 -2.46,3.073 -2.887,3.073 -3.313,3.073 -3.701,2.995 -4.053,2.838 -4.403,2.68 -4.707,2.468 -4.964,2.199 -5.22,1.928 -5.416,1.604 -5.554,1.223 -5.691,0.844 -5.76,0.436 -5.76,0 c 0,-0.454 0.071,-0.873 0.213,-1.258 0.143,-0.384 0.339,-0.712 0.59,-0.988 0.252,-0.276 0.554,-0.492 0.904,-0.648 0.352,-0.156 0.74,-0.235 1.166,-0.235 0.427,0 0.816,0.079 1.166,0.235 0.352,0.156 0.655,0.372 0.91,0.648 0.257,0.276 0.456,0.604 0.599,0.988 C -0.072,-0.873 0,-0.454 0,0 M 2.603,0 C 2.603,-0.796 2.465,-1.523 2.192,-2.183 1.915,-2.843 1.533,-3.404 1.046,-3.875 0.558,-4.345 -0.025,-4.707 -0.696,-4.963 -1.369,-5.22 -2.1,-5.345 -2.887,-5.345 c -0.787,0 -1.514,0.125 -2.183,0.382 -0.669,0.256 -1.247,0.618 -1.736,1.088 -0.488,0.471 -0.869,1.032 -1.145,1.692 -0.274,0.66 -0.412,1.387 -0.412,2.183 0,0.806 0.138,1.533 0.412,2.183 0.276,0.65 0.657,1.202 1.145,1.658 0.489,0.456 1.067,0.804 1.736,1.052 0.669,0.248 1.396,0.37 2.183,0.37 0.787,0 1.518,-0.122 2.191,-0.37 C -0.025,4.645 0.558,4.297 1.046,3.841 1.533,3.385 1.915,2.833 2.192,2.183 2.465,1.533 2.603,0.806 2.603,0"/>
          </g>
          <g transform="translate(684.7678,341.7596)" id="g2083">
            <path id="path2085" style="fill-opacity: 1; fill-rule: nonzero; stroke: none; fill: rgb(255, 255, 255);" d="M 0,0 C 0,0.236 -0.047,0.43 -0.142,0.582 -0.236,0.734 -0.365,0.854 -0.525,0.938 -0.687,1.023 -0.869,1.08 -1.073,1.11 -1.277,1.137 -1.488,1.152 -1.706,1.152 h -1.066 v -2.374 h 1.023 c 0.229,0 0.446,0.018 0.654,0.055 0.209,0.039 0.396,0.105 0.562,0.199 0.166,0.096 0.297,0.22 0.391,0.378 C -0.047,-0.434 0,-0.237 0,0 M 2.432,0.014 C 2.432,-0.572 2.323,-1.068 2.106,-1.47 1.887,-1.876 1.593,-2.201 1.223,-2.447 0.854,-2.694 0.427,-2.874 -0.057,-2.987 -0.54,-3.101 -1.043,-3.156 -1.564,-3.156 H -2.772 V -6.955 H -5.205 V 3.114 h 3.698 c 0.55,0 1.063,-0.054 1.542,-0.162 C 0.515,2.841 0.931,2.666 1.288,2.424 1.643,2.183 1.922,1.865 2.126,1.471 2.33,1.078 2.432,0.591 2.432,0.014"/>
          </g>
          <g transform="translate(696.5585,339.8813)" id="g2087">
            <path id="path2089" style="fill-opacity: 1; fill-rule: nonzero; stroke: none; fill: rgb(255, 255, 255);" d="M 0,0 C 0,0.436 -0.072,0.844 -0.213,1.223 -0.355,1.604 -0.552,1.928 -0.804,2.199 -1.055,2.468 -1.358,2.68 -1.713,2.838 -2.069,2.995 -2.46,3.073 -2.887,3.073 -3.314,3.073 -3.701,2.995 -4.053,2.838 -4.403,2.68 -4.707,2.468 -4.964,2.199 -5.219,1.928 -5.416,1.604 -5.553,1.223 -5.69,0.844 -5.76,0.436 -5.76,0 c 0,-0.454 0.071,-0.873 0.213,-1.258 0.143,-0.384 0.34,-0.712 0.59,-0.988 0.252,-0.276 0.554,-0.492 0.904,-0.648 0.352,-0.156 0.739,-0.235 1.166,-0.235 0.427,0 0.816,0.079 1.166,0.235 0.352,0.156 0.654,0.372 0.91,0.648 0.257,0.276 0.456,0.604 0.598,0.988 C -0.072,-0.873 0,-0.454 0,0 m 2.604,0 c 0,-0.796 -0.139,-1.523 -0.412,-2.183 -0.277,-0.66 -0.659,-1.221 -1.146,-1.692 -0.488,-0.47 -1.07,-0.832 -1.742,-1.088 -0.673,-0.257 -1.405,-0.382 -2.191,-0.382 -0.787,0 -1.514,0.125 -2.183,0.382 -0.668,0.256 -1.247,0.618 -1.735,1.088 -0.489,0.471 -0.87,1.032 -1.144,1.692 -0.276,0.66 -0.414,1.387 -0.414,2.183 0,0.806 0.138,1.533 0.414,2.183 0.274,0.65 0.655,1.202 1.144,1.658 0.488,0.456 1.067,0.804 1.735,1.052 0.669,0.248 1.396,0.37 2.183,0.37 0.786,0 1.518,-0.122 2.191,-0.37 C -0.024,4.645 0.558,4.297 1.046,3.841 1.533,3.385 1.915,2.833 2.192,2.183 2.465,1.533 2.604,0.806 2.604,0"/>
          </g>
          <g transform="translate(700.769,334.8046)" id="g2091">
            <path id="path2093" style="fill-opacity: 1; fill-rule: nonzero; stroke: none; fill: rgb(255, 255, 255);" d="M 0,0 V 10.069 H 2.445 V 2.119 H 6.342 V 0 Z"/>
          </g>
          <g transform="translate(708.2502,334.8046)" id="g2095">
            <path id="path2097" style="fill-opacity: 1; fill-rule: nonzero; stroke: none; fill: rgb(255, 255, 255);" d="M 0,0 V 10.069 H 6.77 V 8.023 H 2.346 V 6.116 H 6.528 V 4.167 H 2.346 V 2.076 H 7.025 V 0 Z"/>
          </g>
        </g>
      </g>
      <g transform="matrix(0.35277777,0,0,-0.35277777,-320.02964,27.04751)" id="g2099">
        <g id="g2101">
          <g id="g2107">
            <g id="g2109">
              <path id="path2121" style="stroke: none; fill: rgb(255, 255, 255);" d="m 573.948,340.917 v -6.115 h 9.556 l -1.48,6.964 z"/>
            </g>
          </g>
        </g>
      </g>
      <g transform="matrix(0.35277777,0,0,-0.35277777,-320.02964,27.04751)" id="g2123">
        <g id="g2125">
          <g id="g2131">
            <g id="g2133">
              <path id="path2145" style="stroke: none; fill: rgb(255, 255, 255);" d="m 547.087,374.438 v -8.177 -0.001 l 6.27,3.622 z"/>
            </g>
          </g>
        </g>
      </g>
      <g transform="matrix(0.35277777,0,0,-0.35277777,-320.02964,27.04751)" id="g2147">
        <g id="g2149">
          <g id="g2155">
            <g id="g2157">
              <path id="path2169" style="stroke: none; fill: rgb(255, 255, 255);" d="m 548.013,375.093 6.363,-4.623 6.141,3.546 v 1.076 0.001 z"/>
            </g>
          </g>
        </g>
      </g>
      <g transform="matrix(0.35277777,0,0,-0.35277777,-320.02964,27.04751)" id="g2171">
        <g id="g2173">
          <g id="g2179">
            <g id="g2181">
              <path id="path2193" style="stroke: none; fill: rgb(255, 255, 255);" d="m 556.927,339.13 1.925,-4.328 h 1.665 v 0 4.705 z"/>
            </g>
          </g>
        </g>
      </g>
      <g transform="matrix(0.35277777,0,0,-0.35277777,-320.02964,27.04751)" id="g2195">
        <g id="g2197">
          <g id="g2203">
            <g id="g2205">
              <path id="path2217" style="stroke: none; fill: rgb(255, 255, 255);" d="m 547.087,338.094 v -3.292 0 h 9.413 l -1.821,4.09 z"/>
            </g>
          </g>
        </g>
      </g>
      <g transform="matrix(0.35277777,0,0,-0.35277777,-320.02964,27.04751)" id="g2219">
        <g id="g2221">
          <g id="g2227">
            <g id="g2229">
              <path id="path2241" style="stroke: none; fill: rgb(255, 255, 255);" d="m 547.087,344.639 v -5.463 -10e-4 l 7.133,0.751 -2.931,6.585 z"/>
            </g>
          </g>
        </g>
      </g>
      <g transform="matrix(0.35277777,0,0,-0.35277777,-320.02964,27.04751)" id="g2243">
        <g id="g2245">
          <g id="g2251">
            <g id="g2253">
              <path id="path2265" style="stroke: none; fill: rgb(255, 255, 255);" d="m 547.087,348.168 v 0 l 2.89,1.288 -2.89,6.49 z"/>
            </g>
          </g>
        </g>
      </g>
      <g transform="matrix(0.35277777,0,0,-0.35277777,-320.02964,27.04751)" id="g2267">
        <g id="g2269">
          <g id="g2275">
            <g id="g2277">
              <path id="path2289" style="stroke: none; fill: rgb(255, 255, 255);" d="m 556.278,369.086 4.239,-3.078 v 0 5.526 0 z"/>
            </g>
          </g>
        </g>
      </g>
      <g transform="matrix(0.35277777,0,0,-0.35277777,-320.02964,27.04751)" id="g2291">
        <g id="g2293">
          <g id="g2299">
            <g id="g2301">
              <path id="path2313" style="stroke: none; fill: rgb(255, 255, 255);" d="m 577.136,375.093 2.63,-12.375 13.102,5.833 -10.072,6.542 z"/>
            </g>
          </g>
        </g>
      </g>
      <g transform="matrix(0.35277777,0,0,-0.35277777,-320.02964,27.04751)" id="g2315">
        <g id="g2317">
          <g id="g2323">
            <g id="g2325">
              <path id="path2337" style="stroke: none; fill: rgb(255, 255, 255);" d="m 553.251,347.385 3.215,-7.224 4.051,0.426 v 7.646 h 13.431 v -6.236 l 7.852,0.826 -1.608,7.562 -7.676,5.576 z"/>
            </g>
          </g>
        </g>
      </g>
      <g transform="matrix(0.35277777,0,0,-0.35277777,-320.02964,27.04751)" id="g2339">
        <g id="g2341">
          <g id="g2347">
            <g id="g2349">
              <path id="path2361" style="stroke: none; fill: rgb(255, 255, 255);" d="m 615.485,375.093 -8.584,-3.822 7.844,-2.548 5.159,6.37 z"/>
            </g>
          </g>
        </g>
      </g>
      <g transform="matrix(0.35277777,0,0,-0.35277777,-320.02964,27.04751)" id="g2363">
        <g id="g2365">
          <g id="g2371">
            <g id="g2373">
              <path id="path2385" style="stroke: none; fill: rgb(255, 255, 255);" d="m 622.669,375.093 -5.735,-7.082 10.736,-3.488 v 10.57 z"/>
            </g>
          </g>
        </g>
      </g>
      <g transform="matrix(0.35277777,0,0,-0.35277777,-320.02964,27.04751)" id="g2387">
        <g id="g2389">
          <g id="g2395">
            <g id="g2397">
              <path id="path2409" style="stroke: none; fill: rgb(255, 255, 255);" d="m 586.741,375.093 8.468,-5.5 5.644,2.514 -9.191,2.986 z"/>
            </g>
          </g>
        </g>
      </g>
      <g transform="matrix(0.35277777,0,0,-0.35277777,-320.02964,27.04751)" id="g2411">
        <g id="g2413">
          <g id="g2419">
            <g id="g2421">
              <path id="path2433" style="stroke: none; fill: rgb(255, 255, 255);" d="m 595.138,375.093 7.182,-2.333 5.24,2.333 z"/>
            </g>
          </g>
        </g>
      </g>
      <g transform="matrix(0.35277777,0,0,-0.35277777,-320.02964,27.04751)" id="g2435">
        <g id="g2437">
          <g id="g2443">
            <g id="g2445">
              <path id="path2457" style="stroke: none; fill: rgb(255, 255, 255);" d="m 573.948,375.093 v -13.43 h -7.45 l 4.141,-3.009 7.122,3.171 -2.821,13.268 z"/>
            </g>
          </g>
        </g>
      </g>
      <g transform="matrix(0.35277777,0,0,-0.35277777,-320.02964,27.04751)" id="g2459">
        <g id="g2461">
          <g id="g2467">
            <g id="g2469">
              <path id="path2481" style="stroke: none; fill: rgb(255, 255, 255);" d="m 573.649,356.466 6.209,-4.508 -1.413,6.642 z"/>
            </g>
          </g>
        </g>
      </g>
      <g transform="matrix(0.35277777,0,0,-0.35277777,-320.02964,27.04751)" id="g2483">
        <g id="g2485">
          <g id="g2491">
            <g id="g2493">
              <path id="path2505" style="stroke: none; fill: rgb(255, 255, 255);" d="m 584.172,341.993 1.522,-7.158 -0.158,-0.033 h 1.843 v 7.526 l -10e-4,0.001 z"/>
            </g>
          </g>
        </g>
      </g>
      <g transform="matrix(0.35277777,0,0,-0.35277777,-320.02964,27.04751)" id="g2507">
        <g id="g2509">
          <g id="g2515">
            <g id="g2517">
              <path id="path2529" style="stroke: none; fill: rgb(255, 255, 255);" d="m 600.808,343.586 v -8.784 0 h 13.431 v 2.805 z"/>
            </g>
          </g>
        </g>
      </g>
      <g transform="matrix(0.35277777,0,0,-0.35277777,-320.02964,27.04751)" id="g2531">
        <g id="g2533">
          <g id="g2539">
            <g id="g2541">
              <path id="path2553" style="stroke: none; fill: rgb(255, 255, 255);" d="m 580.452,359.494 2.005,-9.426 4.922,-3.576 v 15.171 h 13.429 v -10.149 l 6.306,7.786 -11.022,7.157 z"/>
            </g>
          </g>
        </g>
      </g>
      <g transform="matrix(0.35277777,0,0,-0.35277777,-320.02964,27.04751)" id="g2555">
        <g id="g2557">
          <g id="g2563">
            <g id="g2565">
              <path id="path2577" style="stroke: none; fill: rgb(255, 255, 255);" d="m 598.432,367.5 10.043,-6.52 5.546,6.848 -8.588,2.79 z"/>
            </g>
          </g>
        </g>
      </g>
      <g transform="matrix(0.35277777,0,0,-0.35277777,-320.02964,27.04751)" id="g2579">
        <g id="g2581">
          <g id="g2587">
            <g id="g2589">
              <path id="path2601" style="stroke: none; fill: rgb(255, 255, 255);" d="m 610.285,359.802 3.954,-2.568 v 4.429 h 13.431 v 1.73 l -11.461,3.723 z"/>
            </g>
          </g>
        </g>
      </g>
      <g transform="matrix(0.35277777,0,0,-0.35277777,-320.02964,27.04751)" id="g2603">
        <g id="g2605">
          <g id="g2611">
            <g id="g2613">
              <path id="path2625" style="stroke: none; fill: rgb(255, 255, 255);" d="m 600.808,348.098 v -0.983 l 13.431,-5.98 v 0 13.537 l -5.312,3.451 z"/>
            </g>
          </g>
        </g>
      </g>
      <g transform="matrix(0.35277777,0,0,-0.35277777,-320.02964,27.04751)" id="g2627">
        <g id="g2629">
          <g id="g2635">
            <g id="g2637">
              <path id="path2649" style="stroke: none; fill: rgb(255, 255, 255);" d="m 547.087,363.779 v -2.551 l 4.852,-10.899 17.565,7.82 -4.834,3.514 h -4.153 v 3.017 l -5.256,3.819 z"/>
            </g>
          </g>
        </g>
      </g>
      <g transform="matrix(0.35277777,0,0,-0.35277777,-320.02964,27.04751)" id="g2651">
        <g id="g2653">
          <g id="g2659">
            <g id="g2661">
              <path id="path2673" style="stroke: none; fill: rgb(255, 255, 255);" d="m 582.789,348.498 1.159,-5.448 3.431,0.359 v 1.754 z"/>
            </g>
          </g>
        </g>
      </g>
    </g>
  </g>
</svg>