<?xml version="1.0" encoding="UTF-8" standalone="no"?>
<!-- Created with Inkscape (http://www.inkscape.org/) -->

<svg
   xmlns:dc="http://purl.org/dc/elements/1.1/"
   xmlns:cc="http://creativecommons.org/ns#"
   xmlns:rdf="http://www.w3.org/1999/02/22-rdf-syntax-ns#"
   xmlns:svg="http://www.w3.org/2000/svg"
   xmlns="http://www.w3.org/2000/svg"
   xmlns:sodipodi="http://sodipodi.sourceforge.net/DTD/sodipodi-0.dtd"
   xmlns:inkscape="http://www.inkscape.org/namespaces/inkscape"
   width="207.24666mm"
   height="49.97715mm"
   viewBox="0 0 207.24666 49.97715"
   version="1.1"
   id="svg3162"
   inkscape:version="0.92.4 (5da689c313, 2019-01-14)"
   sodipodi:docname="ht-logo-color-and-blue.svg">
  <defs
     id="defs3156">
    <clipPath
       id="clipPath891"
       clipPathUnits="userSpaceOnUse">
      <path
         inkscape:connector-curvature="0"
         id="path889"
         d="m 406.03,314.645 h 282.114 v 68.032 H 406.03 Z" />
    </clipPath>
    <linearGradient
       id="linearGradient969"
       spreadMethod="pad"
       gradientTransform="matrix(129.98543,75.047119,75.047119,-129.98543,417.07602,295.95995)"
       gradientUnits="userSpaceOnUse"
       y2="0"
       x2="1"
       y1="0"
       x1="0">
      <stop
         id="stop961"
         offset="0"
         style="stop-opacity:1;stop-color:#0086cd" />
      <stop
         id="stop963"
         offset="0.3"
         style="stop-opacity:1;stop-color:#009fe3" />
      <stop
         id="stop965"
         offset="0.9"
         style="stop-opacity:1;stop-color:#95c11f" />
      <stop
         id="stop967"
         offset="1"
         style="stop-opacity:1;stop-color:#95c11f" />
    </linearGradient>
    <linearGradient
       id="linearGradient993"
       spreadMethod="pad"
       gradientTransform="matrix(129.9837,75.046127,75.046127,-129.9837,380.21078,359.81325)"
       gradientUnits="userSpaceOnUse"
       y2="0"
       x2="1"
       y1="0"
       x1="0">
      <stop
         id="stop985"
         offset="0"
         style="stop-opacity:1;stop-color:#0086cd" />
      <stop
         id="stop987"
         offset="0.3"
         style="stop-opacity:1;stop-color:#009fe3" />
      <stop
         id="stop989"
         offset="0.9"
         style="stop-opacity:1;stop-color:#95c11f" />
      <stop
         id="stop991"
         offset="1"
         style="stop-opacity:1;stop-color:#95c11f" />
    </linearGradient>
    <linearGradient
       id="linearGradient1017"
       spreadMethod="pad"
       gradientTransform="matrix(129.98508,75.046921,75.046921,-129.98508,380.1664,359.88943)"
       gradientUnits="userSpaceOnUse"
       y2="0"
       x2="1"
       y1="0"
       x1="0">
      <stop
         id="stop1009"
         offset="0"
         style="stop-opacity:1;stop-color:#0086cd" />
      <stop
         id="stop1011"
         offset="0.3"
         style="stop-opacity:1;stop-color:#009fe3" />
      <stop
         id="stop1013"
         offset="0.9"
         style="stop-opacity:1;stop-color:#95c11f" />
      <stop
         id="stop1015"
         offset="1"
         style="stop-opacity:1;stop-color:#95c11f" />
    </linearGradient>
    <linearGradient
       id="linearGradient1041"
       spreadMethod="pad"
       gradientTransform="matrix(129.98434,75.046501,75.046501,-129.98434,409.33742,309.3642)"
       gradientUnits="userSpaceOnUse"
       y2="0"
       x2="1"
       y1="0"
       x1="0">
      <stop
         id="stop1033"
         offset="0"
         style="stop-opacity:1;stop-color:#0086cd" />
      <stop
         id="stop1035"
         offset="0.3"
         style="stop-opacity:1;stop-color:#009fe3" />
      <stop
         id="stop1037"
         offset="0.9"
         style="stop-opacity:1;stop-color:#95c11f" />
      <stop
         id="stop1039"
         offset="1"
         style="stop-opacity:1;stop-color:#95c11f" />
    </linearGradient>
    <linearGradient
       id="linearGradient1065"
       spreadMethod="pad"
       gradientTransform="matrix(129.98384,75.046204,75.046204,-129.98384,406.80777,313.74573)"
       gradientUnits="userSpaceOnUse"
       y2="0"
       x2="1"
       y1="0"
       x1="0">
      <stop
         id="stop1057"
         offset="0"
         style="stop-opacity:1;stop-color:#0086cd" />
      <stop
         id="stop1059"
         offset="0.3"
         style="stop-opacity:1;stop-color:#009fe3" />
      <stop
         id="stop1061"
         offset="0.9"
         style="stop-opacity:1;stop-color:#95c11f" />
      <stop
         id="stop1063"
         offset="1"
         style="stop-opacity:1;stop-color:#95c11f" />
    </linearGradient>
    <linearGradient
       id="linearGradient1089"
       spreadMethod="pad"
       gradientTransform="matrix(129.98531,75.047051,75.047051,-129.98531,402.09216,321.91318)"
       gradientUnits="userSpaceOnUse"
       y2="0"
       x2="1"
       y1="0"
       x1="0">
      <stop
         id="stop1081"
         offset="0"
         style="stop-opacity:1;stop-color:#0086cd" />
      <stop
         id="stop1083"
         offset="0.3"
         style="stop-opacity:1;stop-color:#009fe3" />
      <stop
         id="stop1085"
         offset="0.9"
         style="stop-opacity:1;stop-color:#95c11f" />
      <stop
         id="stop1087"
         offset="1"
         style="stop-opacity:1;stop-color:#95c11f" />
    </linearGradient>
    <linearGradient
       id="linearGradient1113"
       spreadMethod="pad"
       gradientTransform="matrix(129.98434,75.046501,75.046501,-129.98434,393.63557,336.56073)"
       gradientUnits="userSpaceOnUse"
       y2="0"
       x2="1"
       y1="0"
       x1="0">
      <stop
         id="stop1105"
         offset="0"
         style="stop-opacity:1;stop-color:#0086cd" />
      <stop
         id="stop1107"
         offset="0.3"
         style="stop-opacity:1;stop-color:#009fe3" />
      <stop
         id="stop1109"
         offset="0.9"
         style="stop-opacity:1;stop-color:#95c11f" />
      <stop
         id="stop1111"
         offset="1"
         style="stop-opacity:1;stop-color:#95c11f" />
    </linearGradient>
    <linearGradient
       id="linearGradient1137"
       spreadMethod="pad"
       gradientTransform="matrix(129.98393,75.046257,75.046257,-129.98393,386.98923,348.07278)"
       gradientUnits="userSpaceOnUse"
       y2="0"
       x2="1"
       y1="0"
       x1="0">
      <stop
         id="stop1129"
         offset="0"
         style="stop-opacity:1;stop-color:#0086cd" />
      <stop
         id="stop1131"
         offset="0.3"
         style="stop-opacity:1;stop-color:#009fe3" />
      <stop
         id="stop1133"
         offset="0.9"
         style="stop-opacity:1;stop-color:#95c11f" />
      <stop
         id="stop1135"
         offset="1"
         style="stop-opacity:1;stop-color:#95c11f" />
    </linearGradient>
    <linearGradient
       id="linearGradient1161"
       spreadMethod="pad"
       gradientTransform="matrix(129.98473,75.046715,75.046715,-129.98473,395.04065,334.12703)"
       gradientUnits="userSpaceOnUse"
       y2="0"
       x2="1"
       y1="0"
       x1="0">
      <stop
         id="stop1153"
         offset="0"
         style="stop-opacity:1;stop-color:#0086cd" />
      <stop
         id="stop1155"
         offset="0.3"
         style="stop-opacity:1;stop-color:#009fe3" />
      <stop
         id="stop1157"
         offset="0.9"
         style="stop-opacity:1;stop-color:#95c11f" />
      <stop
         id="stop1159"
         offset="1"
         style="stop-opacity:1;stop-color:#95c11f" />
    </linearGradient>
    <linearGradient
       id="linearGradient1185"
       spreadMethod="pad"
       gradientTransform="matrix(129.98511,75.046936,75.046936,-129.98511,407.11766,313.2086)"
       gradientUnits="userSpaceOnUse"
       y2="0"
       x2="1"
       y1="0"
       x1="0">
      <stop
         id="stop1177"
         offset="0"
         style="stop-opacity:1;stop-color:#0086cd" />
      <stop
         id="stop1179"
         offset="0.3"
         style="stop-opacity:1;stop-color:#009fe3" />
      <stop
         id="stop1181"
         offset="0.9"
         style="stop-opacity:1;stop-color:#95c11f" />
      <stop
         id="stop1183"
         offset="1"
         style="stop-opacity:1;stop-color:#95c11f" />
    </linearGradient>
    <linearGradient
       id="linearGradient1209"
       spreadMethod="pad"
       gradientTransform="matrix(129.98502,75.046883,75.046883,-129.98502,407.19389,313.07582)"
       gradientUnits="userSpaceOnUse"
       y2="0"
       x2="1"
       y1="0"
       x1="0">
      <stop
         id="stop1201"
         offset="0"
         style="stop-opacity:1;stop-color:#0086cd" />
      <stop
         id="stop1203"
         offset="0.3"
         style="stop-opacity:1;stop-color:#009fe3" />
      <stop
         id="stop1205"
         offset="0.9"
         style="stop-opacity:1;stop-color:#95c11f" />
      <stop
         id="stop1207"
         offset="1"
         style="stop-opacity:1;stop-color:#95c11f" />
    </linearGradient>
    <linearGradient
       id="linearGradient1233"
       spreadMethod="pad"
       gradientTransform="matrix(129.98424,75.04644,75.04644,-129.98424,413.34772,302.41892)"
       gradientUnits="userSpaceOnUse"
       y2="0"
       x2="1"
       y1="0"
       x1="0">
      <stop
         id="stop1225"
         offset="0"
         style="stop-opacity:1;stop-color:#0086cd" />
      <stop
         id="stop1227"
         offset="0.3"
         style="stop-opacity:1;stop-color:#009fe3" />
      <stop
         id="stop1229"
         offset="0.9"
         style="stop-opacity:1;stop-color:#95c11f" />
      <stop
         id="stop1231"
         offset="1"
         style="stop-opacity:1;stop-color:#95c11f" />
    </linearGradient>
    <linearGradient
       id="linearGradient1257"
       spreadMethod="pad"
       gradientTransform="matrix(129.98413,75.046371,75.046371,-129.98413,397.43755,329.9762)"
       gradientUnits="userSpaceOnUse"
       y2="0"
       x2="1"
       y1="0"
       x1="0">
      <stop
         id="stop1249"
         offset="0"
         style="stop-opacity:1;stop-color:#0086cd" />
      <stop
         id="stop1251"
         offset="0.3"
         style="stop-opacity:1;stop-color:#009fe3" />
      <stop
         id="stop1253"
         offset="0.9"
         style="stop-opacity:1;stop-color:#95c11f" />
      <stop
         id="stop1255"
         offset="1"
         style="stop-opacity:1;stop-color:#95c11f" />
    </linearGradient>
    <linearGradient
       id="linearGradient1281"
       spreadMethod="pad"
       gradientTransform="matrix(129.9848,75.046761,75.046761,-129.9848,399.51933,326.36917)"
       gradientUnits="userSpaceOnUse"
       y2="0"
       x2="1"
       y1="0"
       x1="0">
      <stop
         id="stop1273"
         offset="0"
         style="stop-opacity:1;stop-color:#0086cd" />
      <stop
         id="stop1275"
         offset="0.3"
         style="stop-opacity:1;stop-color:#009fe3" />
      <stop
         id="stop1277"
         offset="0.9"
         style="stop-opacity:1;stop-color:#95c11f" />
      <stop
         id="stop1279"
         offset="1"
         style="stop-opacity:1;stop-color:#95c11f" />
    </linearGradient>
    <linearGradient
       id="linearGradient1305"
       spreadMethod="pad"
       gradientTransform="matrix(129.98473,75.046715,75.046715,-129.98473,393.64713,336.54053)"
       gradientUnits="userSpaceOnUse"
       y2="0"
       x2="1"
       y1="0"
       x1="0">
      <stop
         id="stop1297"
         offset="0"
         style="stop-opacity:1;stop-color:#0086cd" />
      <stop
         id="stop1299"
         offset="0.3"
         style="stop-opacity:1;stop-color:#009fe3" />
      <stop
         id="stop1301"
         offset="0.9"
         style="stop-opacity:1;stop-color:#95c11f" />
      <stop
         id="stop1303"
         offset="1"
         style="stop-opacity:1;stop-color:#95c11f" />
    </linearGradient>
    <linearGradient
       id="linearGradient1329"
       spreadMethod="pad"
       gradientTransform="matrix(129.98431,75.046478,75.046478,-129.98431,404.37306,317.96321)"
       gradientUnits="userSpaceOnUse"
       y2="0"
       x2="1"
       y1="0"
       x1="0">
      <stop
         id="stop1321"
         offset="0"
         style="stop-opacity:1;stop-color:#0086cd" />
      <stop
         id="stop1323"
         offset="0.3"
         style="stop-opacity:1;stop-color:#009fe3" />
      <stop
         id="stop1325"
         offset="0.9"
         style="stop-opacity:1;stop-color:#95c11f" />
      <stop
         id="stop1327"
         offset="1"
         style="stop-opacity:1;stop-color:#95c11f" />
    </linearGradient>
    <linearGradient
       id="linearGradient1353"
       spreadMethod="pad"
       gradientTransform="matrix(129.98389,75.046234,75.046234,-129.98389,419.64235,291.51598)"
       gradientUnits="userSpaceOnUse"
       y2="0"
       x2="1"
       y1="0"
       x1="0">
      <stop
         id="stop1345"
         offset="0"
         style="stop-opacity:1;stop-color:#0086cd" />
      <stop
         id="stop1347"
         offset="0.3"
         style="stop-opacity:1;stop-color:#009fe3" />
      <stop
         id="stop1349"
         offset="0.9"
         style="stop-opacity:1;stop-color:#95c11f" />
      <stop
         id="stop1351"
         offset="1"
         style="stop-opacity:1;stop-color:#95c11f" />
    </linearGradient>
    <linearGradient
       id="linearGradient1377"
       spreadMethod="pad"
       gradientTransform="matrix(129.98474,75.046722,75.046722,-129.98474,428.18323,276.72202)"
       gradientUnits="userSpaceOnUse"
       y2="0"
       x2="1"
       y1="0"
       x1="0">
      <stop
         id="stop1369"
         offset="0"
         style="stop-opacity:1;stop-color:#0086cd" />
      <stop
         id="stop1371"
         offset="0.3"
         style="stop-opacity:1;stop-color:#009fe3" />
      <stop
         id="stop1373"
         offset="0.9"
         style="stop-opacity:1;stop-color:#95c11f" />
      <stop
         id="stop1375"
         offset="1"
         style="stop-opacity:1;stop-color:#95c11f" />
    </linearGradient>
    <linearGradient
       id="linearGradient1401"
       spreadMethod="pad"
       gradientTransform="matrix(129.98445,75.046562,75.046562,-129.98445,409.25325,309.51054)"
       gradientUnits="userSpaceOnUse"
       y2="0"
       x2="1"
       y1="0"
       x1="0">
      <stop
         id="stop1393"
         offset="0"
         style="stop-opacity:1;stop-color:#0086cd" />
      <stop
         id="stop1395"
         offset="0.3"
         style="stop-opacity:1;stop-color:#009fe3" />
      <stop
         id="stop1397"
         offset="0.9"
         style="stop-opacity:1;stop-color:#95c11f" />
      <stop
         id="stop1399"
         offset="1"
         style="stop-opacity:1;stop-color:#95c11f" />
    </linearGradient>
    <linearGradient
       id="linearGradient1425"
       spreadMethod="pad"
       gradientTransform="matrix(129.98453,75.0466,75.0466,-129.98453,408.28543,311.18657)"
       gradientUnits="userSpaceOnUse"
       y2="0"
       x2="1"
       y1="0"
       x1="0">
      <stop
         id="stop1417"
         offset="0"
         style="stop-opacity:1;stop-color:#0086cd" />
      <stop
         id="stop1419"
         offset="0.3"
         style="stop-opacity:1;stop-color:#009fe3" />
      <stop
         id="stop1421"
         offset="0.9"
         style="stop-opacity:1;stop-color:#95c11f" />
      <stop
         id="stop1423"
         offset="1"
         style="stop-opacity:1;stop-color:#95c11f" />
    </linearGradient>
    <linearGradient
       id="linearGradient1449"
       spreadMethod="pad"
       gradientTransform="matrix(129.98482,75.046768,75.046768,-129.98482,415.92818,297.94821)"
       gradientUnits="userSpaceOnUse"
       y2="0"
       x2="1"
       y1="0"
       x1="0">
      <stop
         id="stop1441"
         offset="0"
         style="stop-opacity:1;stop-color:#0086cd" />
      <stop
         id="stop1443"
         offset="0.3"
         style="stop-opacity:1;stop-color:#009fe3" />
      <stop
         id="stop1445"
         offset="0.9"
         style="stop-opacity:1;stop-color:#95c11f" />
      <stop
         id="stop1447"
         offset="1"
         style="stop-opacity:1;stop-color:#95c11f" />
    </linearGradient>
    <linearGradient
       id="linearGradient1473"
       spreadMethod="pad"
       gradientTransform="matrix(129.98466,75.046684,75.046684,-129.98466,422.30617,286.90145)"
       gradientUnits="userSpaceOnUse"
       y2="0"
       x2="1"
       y1="0"
       x1="0">
      <stop
         id="stop1465"
         offset="0"
         style="stop-opacity:1;stop-color:#0086cd" />
      <stop
         id="stop1467"
         offset="0.3"
         style="stop-opacity:1;stop-color:#009fe3" />
      <stop
         id="stop1469"
         offset="0.9"
         style="stop-opacity:1;stop-color:#95c11f" />
      <stop
         id="stop1471"
         offset="1"
         style="stop-opacity:1;stop-color:#95c11f" />
    </linearGradient>
    <linearGradient
       id="linearGradient1497"
       spreadMethod="pad"
       gradientTransform="matrix(129.98392,75.046249,75.046249,-129.98392,391.72766,339.86545)"
       gradientUnits="userSpaceOnUse"
       y2="0"
       x2="1"
       y1="0"
       x1="0">
      <stop
         id="stop1489"
         offset="0"
         style="stop-opacity:1;stop-color:#0086cd" />
      <stop
         id="stop1491"
         offset="0.3"
         style="stop-opacity:1;stop-color:#009fe3" />
      <stop
         id="stop1493"
         offset="0.9"
         style="stop-opacity:1;stop-color:#95c11f" />
      <stop
         id="stop1495"
         offset="1"
         style="stop-opacity:1;stop-color:#95c11f" />
    </linearGradient>
    <linearGradient
       id="linearGradient1521"
       spreadMethod="pad"
       gradientTransform="matrix(129.9837,75.046127,75.046127,-129.9837,413.864,301.52486)"
       gradientUnits="userSpaceOnUse"
       y2="0"
       x2="1"
       y1="0"
       x1="0">
      <stop
         id="stop1513"
         offset="0"
         style="stop-opacity:1;stop-color:#0086cd" />
      <stop
         id="stop1515"
         offset="0.3"
         style="stop-opacity:1;stop-color:#009fe3" />
      <stop
         id="stop1517"
         offset="0.9"
         style="stop-opacity:1;stop-color:#95c11f" />
      <stop
         id="stop1519"
         offset="1"
         style="stop-opacity:1;stop-color:#95c11f" />
    </linearGradient>
  </defs>
  <sodipodi:namedview
     id="base"
     pagecolor="#ffffff"
     bordercolor="#666666"
     borderopacity="1.0"
     inkscape:pageopacity="0.0"
     inkscape:pageshadow="2"
     inkscape:zoom="1.4"
     inkscape:cx="549.02478"
     inkscape:cy="23.894598"
     inkscape:document-units="mm"
     inkscape:current-layer="layer1"
     showgrid="false"
     fit-margin-top="0"
     fit-margin-left="0"
     fit-margin-right="0"
     fit-margin-bottom="0"
     inkscape:window-width="3840"
     inkscape:window-height="2054"
     inkscape:window-x="-9"
     inkscape:window-y="-9"
     inkscape:window-maximized="1" />
  <metadata
     id="metadata3159">
    <rdf:RDF>
      <cc:Work
         rdf:about="">
        <dc:format>image/svg+xml</dc:format>
        <dc:type
           rdf:resource="http://purl.org/dc/dcmitype/StillImage" />
        <dc:title></dc:title>
      </cc:Work>
    </rdf:RDF>
  </metadata>
  <g
     inkscape:label="Layer 1"
     inkscape:groupmode="layer"
     id="layer1"
     transform="translate(-57.205545,-212.15375)">
    <g
       transform="matrix(2.0823904,0,0,2.0823904,-139.63025,60.211922)"
       id="g3154">
      <g
         transform="matrix(0.35277777,0,0,-0.35277777,140.00841,88.858057)"
         id="g881">
        <path
           inkscape:connector-curvature="0"
           id="path883"
           style="fill:#005da9;fill-opacity:1;fill-rule:nonzero;stroke:none"
           d="M 0,0 V 7.062 H -6.584 V 0 h -4.082 v 16.894 h 4.082 V 10.5 H 0 v 6.394 H 4.082 V 0 Z" />
      </g>
      <g
         transform="matrix(0.35277777,0,0,-0.35277777,-48.714394,207.96504)"
         id="g885">
        <g
           clip-path="url(#clipPath891)"
           id="g887">
          <g
             transform="translate(556.3306,341.2179)"
             id="g893">
            <path
               inkscape:connector-curvature="0"
               id="path895"
               style="fill:#005da9;fill-opacity:1;fill-rule:nonzero;stroke:none"
               d="m 0,0 c -0.342,-0.836 -0.832,-1.548 -1.468,-2.148 -0.636,-0.596 -1.404,-1.06 -2.302,-1.394 -0.898,-0.332 -1.898,-0.5 -2.996,-0.5 -1.112,0 -2.114,0.168 -3.006,0.5 -0.89,0.334 -1.646,0.798 -2.266,1.394 -0.62,0.6 -1.098,1.312 -1.432,2.148 -0.334,0.834 -0.5,1.762 -0.5,2.782 v 10.52 h 4.054 V 3.116 c 0,-0.464 0.062,-0.902 0.18,-1.316 0.12,-0.414 0.302,-0.782 0.55,-1.106 0.244,-0.326 0.572,-0.584 0.978,-0.778 0.406,-0.19 0.894,-0.286 1.466,-0.286 0.574,0 1.062,0.096 1.468,0.286 0.406,0.194 0.736,0.452 0.99,0.778 0.254,0.324 0.438,0.692 0.55,1.106 0.11,0.414 0.168,0.852 0.168,1.316 V 13.302 H 0.512 V 2.782 C 0.512,1.762 0.342,0.834 0,0" />
          </g>
          <g
             transform="translate(575.4535,337.6261)"
             id="g897">
            <path
               inkscape:connector-curvature="0"
               id="path899"
               style="fill:#005da9;fill-opacity:1;fill-rule:nonzero;stroke:none"
               d="M 0,0 0.096,11.956 H 0.024 L -4.366,0 H -7.228 L -11.5,11.956 h -0.072 L -11.476,0 h -3.842 v 16.894 h 5.806 L -5.666,6.06 h 0.096 l 3.678,10.834 H 4.01 V 0 Z" />
          </g>
          <g
             transform="translate(589.8423,350.0109)"
             id="g901">
            <path
               inkscape:connector-curvature="0"
               id="path903"
               style="fill:#005da9;fill-opacity:1;fill-rule:nonzero;stroke:none"
               d="M 0,0 -2.146,-5.796 H 2.1 Z M 4.534,-12.382 3.22,-9.066 h -6.538 l -1.24,-3.316 h -4.438 l 7.086,16.89 h 3.96 l 7.016,-16.89 z" />
          </g>
          <g
             transform="translate(611.0531,337.6261)"
             id="g905">
            <path
               inkscape:connector-curvature="0"
               id="path907"
               style="fill:#005da9;fill-opacity:1;fill-rule:nonzero;stroke:none"
               d="M 0,0 -6.8,11.048 H -6.872 L -6.778,0 h -3.96 v 16.894 h 4.654 L 0.692,5.872 H 0.764 L 0.668,16.894 h 3.96 V 0 Z" />
          </g>
          <g
             transform="translate(533.1479,328.5049)"
             id="g909">
            <path
               inkscape:connector-curvature="0"
               id="path911"
               style="fill:#005da9;fill-opacity:1;fill-rule:nonzero;stroke:none"
               d="M 0,0 V -13.406 H -4.08 V 0 H -8.85 V 3.484 H 4.77 V 0 Z" />
          </g>
          <g
             transform="translate(539.7787,315.0987)"
             id="g913">
            <path
               inkscape:connector-curvature="0"
               id="path915"
               style="fill:#005da9;fill-opacity:1;fill-rule:nonzero;stroke:none"
               d="M 0,0 V 16.89 H 11.356 V 13.458 H 3.938 v -3.2 H 10.95 V 6.99 H 3.938 V 3.482 h 7.848 V 0 Z" />
          </g>
          <g
             transform="translate(566.356,315.3958)"
             id="g917">
            <path
               inkscape:connector-curvature="0"
               id="path919"
               style="fill:#005da9;fill-opacity:1;fill-rule:nonzero;stroke:none"
               d="m 0,0 c -1.098,-0.5 -2.362,-0.75 -3.792,-0.75 -1.306,0 -2.51,0.212 -3.616,0.644 -1.106,0.428 -2.062,1.038 -2.876,1.824 -0.81,0.788 -1.446,1.734 -1.908,2.826 -0.46,1.098 -0.69,2.308 -0.69,3.628 0,1.352 0.234,2.576 0.702,3.674 0.47,1.098 1.118,2.03 1.946,2.802 0.826,0.772 1.796,1.364 2.91,1.778 1.114,0.414 2.314,0.62 3.602,0.62 1.192,0 2.366,-0.212 3.518,-0.632 1.156,-0.422 2.088,-1.038 2.804,-1.85 l -2.766,-2.766 c -0.382,0.524 -0.884,0.914 -1.504,1.168 -0.622,0.254 -1.256,0.384 -1.908,0.384 -0.716,0 -1.374,-0.134 -1.968,-0.392 -0.596,-0.266 -1.11,-0.628 -1.54,-1.086 -0.43,-0.464 -0.762,-1.006 -1.002,-1.638 -0.238,-0.626 -0.358,-1.314 -0.358,-2.062 0,-0.764 0.12,-1.464 0.358,-2.1 0.24,-0.634 0.568,-1.182 0.99,-1.634 0.422,-0.454 0.926,-0.808 1.516,-1.062 0.588,-0.252 1.232,-0.38 1.932,-0.38 0.812,0 1.52,0.158 2.124,0.476 0.604,0.32 1.088,0.734 1.454,1.24 l 2.84,-2.67 C 2.02,1.182 1.098,0.502 0,0" />
          </g>
          <g
             transform="translate(581.5297,315.0987)"
             id="g921">
            <path
               inkscape:connector-curvature="0"
               id="path923"
               style="fill:#005da9;fill-opacity:1;fill-rule:nonzero;stroke:none"
               d="M 0,0 V 7.062 H -6.584 V 0 h -4.08 v 16.89 h 4.08 V 10.498 H 0 V 16.89 H 4.078 V 0 Z" />
          </g>
          <g
             transform="translate(599.8265,315.0987)"
             id="g925">
            <path
               inkscape:connector-curvature="0"
               id="path927"
               style="fill:#005da9;fill-opacity:1;fill-rule:nonzero;stroke:none"
               d="M 0,0 -6.798,11.044 H -6.874 L -6.776,0 h -3.96 v 16.89 h 4.652 L 0.692,5.87 H 0.764 L 0.668,16.89 H 4.626 V 0 Z" />
          </g>
          <g
             transform="translate(621.1781,323.6143)"
             id="g929">
            <path
               inkscape:connector-curvature="0"
               id="path931"
               style="fill:#005da9;fill-opacity:1;fill-rule:nonzero;stroke:none"
               d="M 0,0 C 0,0.732 -0.12,1.416 -0.356,2.052 -0.596,2.69 -0.926,3.234 -1.348,3.688 -1.77,4.14 -2.278,4.496 -2.874,4.76 -3.47,5.024 -4.126,5.154 -4.842,5.154 -5.558,5.154 -6.208,5.024 -6.798,4.76 -7.386,4.496 -7.896,4.14 -8.326,3.688 -8.756,3.234 -9.084,2.69 -9.316,2.052 -9.546,1.416 -9.662,0.732 -9.662,0 c 0,-0.762 0.12,-1.464 0.358,-2.11 0.24,-0.644 0.568,-1.194 0.99,-1.658 0.422,-0.462 0.928,-0.824 1.516,-1.086 0.59,-0.262 1.24,-0.394 1.956,-0.394 0.716,0 1.368,0.132 1.956,0.394 0.59,0.262 1.098,0.624 1.526,1.086 0.43,0.464 0.764,1.014 1.004,1.658 C -0.12,-1.464 0,-0.762 0,0 m 4.366,0 c 0,-1.336 -0.232,-2.554 -0.69,-3.662 C 3.212,-4.768 2.572,-5.71 1.754,-6.5 0.936,-7.288 -0.042,-7.896 -1.168,-8.324 c -1.128,-0.432 -2.354,-0.642 -3.674,-0.642 -1.32,0 -2.54,0.21 -3.662,0.642 -1.122,0.428 -2.092,1.036 -2.912,1.824 -0.818,0.79 -1.458,1.732 -1.92,2.838 -0.46,1.108 -0.692,2.326 -0.692,3.662 0,1.352 0.232,2.572 0.692,3.662 0.462,1.09 1.102,2.016 1.92,2.78 0.82,0.766 1.79,1.35 2.912,1.766 1.122,0.416 2.342,0.62 3.662,0.62 1.32,0 2.546,-0.204 3.674,-0.62 1.126,-0.416 2.104,-1 2.922,-1.766 C 2.572,5.678 3.212,4.752 3.676,3.662 4.134,2.572 4.366,1.352 4.366,0" />
          </g>
          <g
             transform="translate(636.9711,326.7647)"
             id="g933">
            <path
               inkscape:connector-curvature="0"
               id="path935"
               style="fill:#005da9;fill-opacity:1;fill-rule:nonzero;stroke:none"
               d="M 0,0 C 0,0.396 -0.078,0.722 -0.238,0.976 -0.396,1.232 -0.612,1.432 -0.88,1.574 -1.152,1.716 -1.458,1.812 -1.8,1.862 -2.142,1.908 -2.496,1.932 -2.862,1.932 H -4.65 V -2.05 h 1.716 c 0.384,0 0.748,0.03 1.098,0.092 0.35,0.066 0.664,0.176 0.942,0.334 0.278,0.162 0.498,0.37 0.656,0.634 C -0.078,-0.728 0,-0.398 0,0 M 4.08,0.024 C 4.08,-0.96 3.896,-1.792 3.532,-2.466 3.166,-3.146 2.672,-3.692 2.052,-4.104 1.432,-4.518 0.716,-4.82 -0.096,-5.01 -0.906,-5.202 -1.75,-5.294 -2.624,-5.294 H -4.65 v -6.372 h -4.08 v 16.89 h 6.202 c 0.922,0 1.784,-0.092 2.586,-0.272 C 0.864,4.766 1.562,4.472 2.16,4.066 2.756,3.662 3.224,3.128 3.566,2.468 3.908,1.808 4.08,0.992 4.08,0.024" />
          </g>
          <g
             transform="translate(656.7485,323.6143)"
             id="g937">
            <path
               inkscape:connector-curvature="0"
               id="path939"
               style="fill:#005da9;fill-opacity:1;fill-rule:nonzero;stroke:none"
               d="M 0,0 C 0,0.732 -0.12,1.416 -0.358,2.052 -0.596,2.69 -0.926,3.234 -1.348,3.688 -1.77,4.14 -2.278,4.496 -2.874,4.76 -3.47,5.024 -4.126,5.154 -4.842,5.154 -5.558,5.154 -6.208,5.024 -6.798,4.76 -7.386,4.496 -7.896,4.14 -8.326,3.688 -8.754,3.234 -9.084,2.69 -9.314,2.052 -9.544,1.416 -9.662,0.732 -9.662,0 c 0,-0.762 0.12,-1.464 0.358,-2.11 0.24,-0.644 0.57,-1.194 0.99,-1.658 0.422,-0.462 0.928,-0.824 1.516,-1.086 0.59,-0.262 1.24,-0.394 1.956,-0.394 0.716,0 1.368,0.132 1.956,0.394 0.59,0.262 1.096,0.624 1.526,1.086 0.43,0.464 0.764,1.014 1.002,1.658 C -0.12,-1.464 0,-0.762 0,0 M 4.368,0 C 4.368,-1.336 4.134,-2.554 3.676,-3.662 3.212,-4.768 2.572,-5.71 1.754,-6.5 0.936,-7.288 -0.04,-7.896 -1.168,-8.324 c -1.128,-0.432 -2.356,-0.642 -3.674,-0.642 -1.32,0 -2.54,0.21 -3.662,0.642 -1.12,0.428 -2.092,1.036 -2.91,1.824 -0.82,0.79 -1.46,1.732 -1.92,2.838 -0.462,1.108 -0.694,2.326 -0.694,3.662 0,1.352 0.232,2.572 0.694,3.662 0.46,1.09 1.1,2.016 1.92,2.78 0.818,0.766 1.79,1.35 2.91,1.766 1.122,0.416 2.342,0.62 3.662,0.62 1.318,0 2.546,-0.204 3.674,-0.62 1.128,-0.416 2.104,-1 2.922,-1.766 C 2.572,5.678 3.212,4.752 3.676,3.662 4.134,2.572 4.368,1.352 4.368,0" />
          </g>
          <g
             transform="translate(663.8109,315.0987)"
             id="g941">
            <path
               inkscape:connector-curvature="0"
               id="path943"
               style="fill:#005da9;fill-opacity:1;fill-rule:nonzero;stroke:none"
               d="M 0,0 V 16.89 H 4.102 V 3.554 h 6.536 V 0 Z" />
          </g>
          <g
             transform="translate(676.3597,315.0987)"
             id="g945">
            <path
               inkscape:connector-curvature="0"
               id="path947"
               style="fill:#005da9;fill-opacity:1;fill-rule:nonzero;stroke:none"
               d="m 0,0 v 16.89 h 11.356 v -3.432 h -7.42 v -3.2 H 10.95 V 6.99 H 3.936 V 3.482 h 7.848 V 0 Z" />
          </g>
        </g>
      </g>
      <g
         transform="matrix(0.35277777,0,0,-0.35277777,-48.714394,207.96504)"
         id="g949">
        <g
           id="g951">
          <g
             id="g957">
            <g
               id="g959">
              <path
                 inkscape:connector-curvature="0"
                 id="path971"
                 style="fill:url(#linearGradient969);stroke:none"
                 d="m 451.085,325.353 v -10.259 l 0.001,-10e-4 h 16.029 v 0 l -2.484,11.684 z" />
            </g>
          </g>
        </g>
      </g>
      <g
         transform="matrix(0.35277777,0,0,-0.35277777,-48.714394,207.96504)"
         id="g973">
        <g
           id="g975">
          <g
             id="g981">
            <g
               id="g983">
              <path
                 inkscape:connector-curvature="0"
                 id="path995"
                 style="fill:url(#linearGradient993);stroke:none"
                 d="m 406.03,381.577 v -13.715 0 l 10.518,6.073 z" />
            </g>
          </g>
        </g>
      </g>
      <g
         transform="matrix(0.35277777,0,0,-0.35277777,-48.714394,207.96504)"
         id="g997">
        <g
           id="g999">
          <g
             id="g1005">
            <g
               id="g1007">
              <path
                 inkscape:connector-curvature="0"
                 id="path1019"
                 style="fill:url(#linearGradient1017);stroke:none"
                 d="m 407.582,382.677 v 0 l 10.673,-7.756 10.302,5.948 v 1.808 0 z" />
            </g>
          </g>
        </g>
      </g>
      <g
         transform="matrix(0.35277777,0,0,-0.35277777,-48.714394,207.96504)"
         id="g1021">
        <g
           id="g1023">
          <g
             id="g1029">
            <g
               id="g1031">
              <path
                 inkscape:connector-curvature="0"
                 id="path1043"
                 style="fill:url(#linearGradient1041);stroke:none"
                 d="m 422.534,322.351 3.232,-7.258 h 2.791 v 0 7.89 z" />
            </g>
          </g>
        </g>
      </g>
      <g
         transform="matrix(0.35277777,0,0,-0.35277777,-48.714394,207.96504)"
         id="g1045">
        <g
           id="g1047">
          <g
             id="g1053">
            <g
               id="g1055">
              <path
                 inkscape:connector-curvature="0"
                 id="path1067"
                 style="fill:url(#linearGradient1065);stroke:none"
                 d="m 406.03,320.615 v -5.522 0 h 15.788 0.001 l -3.053,6.862 z" />
            </g>
          </g>
        </g>
      </g>
      <g
         transform="matrix(0.35277777,0,0,-0.35277777,-48.714394,207.96504)"
         id="g1069">
        <g
           id="g1071">
          <g
             id="g1077">
            <g
               id="g1079">
              <path
                 inkscape:connector-curvature="0"
                 id="path1091"
                 style="fill:url(#linearGradient1089);stroke:none"
                 d="m 406.03,331.595 v -9.165 l 11.965,1.257 -4.918,11.044 z" />
            </g>
          </g>
        </g>
      </g>
      <g
         transform="matrix(0.35277777,0,0,-0.35277777,-48.714394,207.96504)"
         id="g1093">
        <g
           id="g1095">
          <g
             id="g1101">
            <g
               id="g1103">
              <path
                 inkscape:connector-curvature="0"
                 id="path1115"
                 style="fill:url(#linearGradient1113);stroke:none"
                 d="m 406.03,337.513 4.848,2.158 -4.848,10.89 z" />
            </g>
          </g>
        </g>
      </g>
      <g
         transform="matrix(0.35277777,0,0,-0.35277777,-48.714394,207.96504)"
         id="g1117">
        <g
           id="g1119">
          <g
             id="g1125">
            <g
               id="g1127">
              <path
                 inkscape:connector-curvature="0"
                 id="path1139"
                 style="fill:url(#linearGradient1137);stroke:none"
                 d="m 421.449,372.603 7.108,-5.166 v 0 9.27 z" />
            </g>
          </g>
        </g>
      </g>
      <g
         transform="matrix(0.35277777,0,0,-0.35277777,-48.714394,207.96504)"
         id="g1141">
        <g
           id="g1143">
          <g
             id="g1149">
            <g
               id="g1151">
              <path
                 inkscape:connector-curvature="0"
                 id="path1163"
                 style="fill:url(#linearGradient1161);stroke:none"
                 d="m 456.433,382.677 4.413,-20.758 21.975,9.784 -16.897,10.974 z" />
            </g>
          </g>
        </g>
      </g>
      <g
         transform="matrix(0.35277777,0,0,-0.35277777,-48.714394,207.96504)"
         id="g1165">
        <g
           id="g1167">
          <g
             id="g1173">
            <g
               id="g1175">
              <path
                 inkscape:connector-curvature="0"
                 id="path1187"
                 style="fill:url(#linearGradient1185);stroke:none"
                 d="m 416.37,336.199 5.393,-12.116 6.794,0.712 v 12.826 h 22.528 v -10.458 l 13.17,1.386 -2.695,12.684 -12.875,9.352 z" />
            </g>
          </g>
        </g>
      </g>
      <g
         transform="matrix(0.35277777,0,0,-0.35277777,-48.714394,207.96504)"
         id="g1189">
        <g
           id="g1191">
          <g
             id="g1197">
            <g
               id="g1199">
              <path
                 inkscape:connector-curvature="0"
                 id="path1211"
                 style="fill:url(#linearGradient1209);stroke:none"
                 d="m 520.762,382.677 -14.4,-6.412 13.156,-4.276 8.653,10.688 v 0 z" />
            </g>
          </g>
        </g>
      </g>
      <g
         transform="matrix(0.35277777,0,0,-0.35277777,-48.714394,207.96504)"
         id="g1213">
        <g
           id="g1215">
          <g
             id="g1221">
            <g
               id="g1223">
              <path
                 inkscape:connector-curvature="0"
                 id="path1235"
                 style="fill:url(#linearGradient1233);stroke:none"
                 d="m 532.81,382.677 -9.62,-11.88 18.005,-5.85 v 17.73 z" />
            </g>
          </g>
        </g>
      </g>
      <g
         transform="matrix(0.35277777,0,0,-0.35277777,-48.714394,207.96504)"
         id="g1237">
        <g
           id="g1239">
          <g
             id="g1245">
            <g
               id="g1247">
              <path
                 inkscape:connector-curvature="0"
                 id="path1259"
                 style="fill:url(#linearGradient1257);stroke:none"
                 d="m 472.542,382.677 v 0 l 14.206,-9.226 9.465,4.216 -15.42,5.01 z" />
            </g>
          </g>
        </g>
      </g>
      <g
         transform="matrix(0.35277777,0,0,-0.35277777,-48.714394,207.96504)"
         id="g1261">
        <g
           id="g1263">
          <g
             id="g1269">
            <g
               id="g1271">
              <path
                 inkscape:connector-curvature="0"
                 id="path1283"
                 style="fill:url(#linearGradient1281);stroke:none"
                 d="m 486.626,382.677 v 0 l 12.05,-3.916 8.793,3.916 v 0 z" />
            </g>
          </g>
        </g>
      </g>
      <g
         transform="matrix(0.35277777,0,0,-0.35277777,-48.714394,207.96504)"
         id="g1285">
        <g
           id="g1287">
          <g
             id="g1293">
            <g
               id="g1295">
              <path
                 inkscape:connector-curvature="0"
                 id="path1307"
                 style="fill:url(#linearGradient1305);stroke:none"
                 d="M 451.085,382.677 V 360.149 H 438.59 l 6.945,-5.048 11.945,5.32 -4.731,22.256 z" />
            </g>
          </g>
        </g>
      </g>
      <g
         transform="matrix(0.35277777,0,0,-0.35277777,-48.714394,207.96504)"
         id="g1309">
        <g
           id="g1311">
          <g
             id="g1317">
            <g
               id="g1319">
              <path
                 inkscape:connector-curvature="0"
                 id="path1331"
                 style="fill:url(#linearGradient1329);stroke:none"
                 d="M 450.586,351.433 461,343.869 458.629,355.013 Z" />
            </g>
          </g>
        </g>
      </g>
      <g
         transform="matrix(0.35277777,0,0,-0.35277777,-48.714394,207.96504)"
         id="g1333">
        <g
           id="g1335">
          <g
             id="g1341">
            <g
               id="g1343">
              <path
                 inkscape:connector-curvature="0"
                 id="path1355"
                 style="fill:url(#linearGradient1353);stroke:none"
                 d="m 468.236,327.155 2.551,-12.006 -0.263,-0.056 h 3.089 v 0 12.628 0 z" />
            </g>
          </g>
        </g>
      </g>
      <g
         transform="matrix(0.35277777,0,0,-0.35277777,-48.714394,207.96504)"
         id="g1357">
        <g
           id="g1359">
          <g
             id="g1365">
            <g
               id="g1367">
              <path
                 inkscape:connector-curvature="0"
                 id="path1379"
                 style="fill:url(#linearGradient1377);stroke:none"
                 d="m 496.141,329.829 v -14.736 0 h 22.527 10e-4 v 4.706 l -22.527,10.03 z" />
            </g>
          </g>
        </g>
      </g>
      <g
         transform="matrix(0.35277777,0,0,-0.35277777,-48.714394,207.96504)"
         id="g1381">
        <g
           id="g1383">
          <g
             id="g1389">
            <g
               id="g1391">
              <path
                 inkscape:connector-curvature="0"
                 id="path1403"
                 style="fill:url(#linearGradient1401);stroke:none"
                 d="m 461.995,356.513 3.363,-15.812 8.255,-5.998 v 25.446 h 22.528 v -17.024 l 10.579,13.06 -18.491,12.008 z" />
            </g>
          </g>
        </g>
      </g>
      <g
         transform="matrix(0.35277777,0,0,-0.35277777,-48.714394,207.96504)"
         id="g1405">
        <g
           id="g1407">
          <g
             id="g1413">
            <g
               id="g1415">
              <path
                 inkscape:connector-curvature="0"
                 id="path1427"
                 style="fill:url(#linearGradient1425);stroke:none"
                 d="M 492.155,369.941 509,359.003 l 9.302,11.488 -14.403,4.678 z" />
            </g>
          </g>
        </g>
      </g>
      <g
         transform="matrix(0.35277777,0,0,-0.35277777,-48.714394,207.96504)"
         id="g1429">
        <g
           id="g1431">
          <g
             id="g1437">
            <g
               id="g1439">
              <path
                 inkscape:connector-curvature="0"
                 id="path1451"
                 style="fill:url(#linearGradient1449);stroke:none"
                 d="m 512.038,357.027 6.631,-4.304 v 7.426 h 22.526 v 2.902 l -19.221,6.246 z" />
            </g>
          </g>
        </g>
      </g>
      <g
         transform="matrix(0.35277777,0,0,-0.35277777,-48.714394,207.96504)"
         id="g1453">
        <g
           id="g1455">
          <g
             id="g1461">
            <g
               id="g1463">
              <path
                 inkscape:connector-curvature="0"
                 id="path1475"
                 style="fill:url(#linearGradient1473);stroke:none"
                 d="m 496.141,337.397 v -1.65 l 22.528,-10.028 v 22.704 l -8.912,5.788 z" />
            </g>
          </g>
        </g>
      </g>
      <g
         transform="matrix(0.35277777,0,0,-0.35277777,-48.714394,207.96504)"
         id="g1477">
        <g
           id="g1479">
          <g
             id="g1485">
            <g
               id="g1487">
              <path
                 inkscape:connector-curvature="0"
                 id="path1499"
                 style="fill:url(#linearGradient1497);stroke:none"
                 d="m 406.03,363.701 v -4.28 l 8.139,-18.284 29.464,13.118 -8.11,5.894 h -6.966 v 5.062 l -8.818,6.406 z" />
            </g>
          </g>
        </g>
      </g>
      <g
         transform="matrix(0.35277777,0,0,-0.35277777,-48.714394,207.96504)"
         id="g1501">
        <g
           id="g1503">
          <g
             id="g1509">
            <g
               id="g1511">
              <path
                 inkscape:connector-curvature="0"
                 id="path1523"
                 style="fill:url(#linearGradient1521);stroke:none"
                 d="m 467.858,328.927 5.755,0.606 v 2.94 l -7.697,5.594 z" />
            </g>
          </g>
        </g>
      </g>
    </g>
  </g>
</svg>
