<svg id="Layer_1" data-name="Layer 1" xmlns="http://www.w3.org/2000/svg" viewBox="0 0 99.02 57.05"><defs><style>.cls-1{fill:#433a3b;}.cls-2{fill:#706f6f;}.cls-3{fill:#57bdbd;}</style></defs><path class="cls-1" d="M1.46,16.75H6.78V40.94H1.46Z"/><path class="cls-1" d="M24.58,41.35a13.27,13.27,0,0,1-5.15-1,12.94,12.94,0,0,1-4.06-2.66,11.87,11.87,0,0,1-2.66-3.94,12.32,12.32,0,0,1-1-4.86v-.07a12.31,12.31,0,0,1,1-4.85,12.42,12.42,0,0,1,6.76-6.67,13.25,13.25,0,0,1,5.16-1,13.09,13.09,0,0,1,5.15,1A12.77,12.77,0,0,1,33.85,20a11.87,11.87,0,0,1,2.66,3.94,12.3,12.3,0,0,1,1,4.85v.07a12.32,12.32,0,0,1-1,4.86,12.42,12.42,0,0,1-6.76,6.67A13.43,13.43,0,0,1,24.58,41.35Zm.06-4.9a7.32,7.32,0,0,0,2.94-.59,6.55,6.55,0,0,0,2.3-1.63,7.76,7.76,0,0,0,1.49-2.4,8.05,8.05,0,0,0,.53-2.92v-.07a8.19,8.19,0,0,0-.53-2.93,7.47,7.47,0,0,0-1.52-2.42,7.32,7.32,0,0,0-2.34-1.64,7,7,0,0,0-2.93-.61,7.28,7.28,0,0,0-3,.59,6.67,6.67,0,0,0-2.28,1.62,7.88,7.88,0,0,0-1.49,2.4,8.13,8.13,0,0,0-.53,2.92v.07a8.2,8.2,0,0,0,.53,2.94,7.33,7.33,0,0,0,1.53,2.42,7.2,7.2,0,0,0,2.31,1.64A7.11,7.11,0,0,0,24.64,36.45Z"/><path class="cls-2" d="M61.88,16.75H67.2V40.94H61.88Z"/><path class="cls-2" d="M85,41.35a13.31,13.31,0,0,1-5.15-1,12.94,12.94,0,0,1-4.06-2.66,11.87,11.87,0,0,1-2.66-3.94,12.5,12.5,0,0,1-.95-4.86v-.07a12.14,12.14,0,0,1,1-4.85,12.4,12.4,0,0,1,2.67-4,12.52,12.52,0,0,1,4.08-2.7,14.07,14.07,0,0,1,10.32,0A12.88,12.88,0,0,1,94.28,20a12,12,0,0,1,2.66,3.94,12.48,12.48,0,0,1,1,4.85v.07a12.33,12.33,0,0,1-1,4.86,12.42,12.42,0,0,1-6.76,6.67A13.4,13.4,0,0,1,85,41.35Zm.07-4.9A7.23,7.23,0,0,0,88,35.86a6.55,6.55,0,0,0,2.3-1.63,7.58,7.58,0,0,0,1.49-2.4,8.05,8.05,0,0,0,.53-2.92v-.07a8.19,8.19,0,0,0-.53-2.93,7.47,7.47,0,0,0-1.52-2.42,7.39,7.39,0,0,0-2.33-1.64A7,7,0,0,0,85,21.24a7.31,7.31,0,0,0-3,.59,6.87,6.87,0,0,0-2.28,1.62,7.67,7.67,0,0,0-1.48,2.4,7.93,7.93,0,0,0-.54,2.92v.07a8,8,0,0,0,.54,2.94A7.15,7.15,0,0,0,79.8,34.2a7.31,7.31,0,0,0,2.31,1.64A7.12,7.12,0,0,0,85.07,36.45Z"/><path class="cls-3" d="M49.36,5.15l-2.07,6.08c-.35,1-.71,2-1.08,3.08l-.29.77c-.09.27-.19.46-.28.7-.18.44-.34.9-.49,1.36a15.64,15.64,0,0,0,.25,11.31A8.24,8.24,0,0,0,47,31l2.16,2.39a25,25,0,0,1,2.15,2.7A12.77,12.77,0,0,1,53,39.45a13.15,13.15,0,0,1,.55,3.81,24.91,24.91,0,0,1-.3,3.45A19.55,19.55,0,0,0,53,49.58a16.14,16.14,0,0,0,.33,2.73,2.61,2.61,0,0,1-5.12,1,.78.78,0,0,1,0-.16h0A21.53,21.53,0,0,1,48,49.5,23.74,23.74,0,0,1,48.47,46c.22-1.08.39-2.07.53-2.93a9.43,9.43,0,0,0,0-2.6,8.56,8.56,0,0,0-.83-2.52,20.06,20.06,0,0,0-1.54-2.57l-3.79-5.52a17.27,17.27,0,0,1-2.32-6.7A22.42,22.42,0,0,1,40.77,16c.11-.58.24-1.15.4-1.73.07-.27.15-.59.24-.83l.25-.75c.33-1,.65-2,1-3l1.91-6.17A2.55,2.55,0,0,1,49.4,5l0,.06Z"/><path class="cls-3" d="M55.71,6.09a16.44,16.44,0,0,1,4.08,7.26,12.85,12.85,0,0,1,.24,4,8.75,8.75,0,0,1-.14,1,8.6,8.6,0,0,1-.25.94A18.93,18.93,0,0,1,59,21.13,14.79,14.79,0,0,1,54.16,27a26.12,26.12,0,0,1-6.4,3.35c-.55.21-1.11.39-1.67.58-.27.1-.55.18-.83.27l-.36.12-.33.13a5.39,5.39,0,0,0-2.13,1.64,13.94,13.94,0,0,0-2.32,5.63c-.23,1.06-.41,2.15-.57,3.25l-.23,1.62-.2,1.64c-.13,1.1-.22,2.22-.3,3.31,0,.55-.06,1.1-.07,1.63a10.32,10.32,0,0,0,0,1.42,2.85,2.85,0,0,1-5.64.85,2.66,2.66,0,0,1,0-.63v-.22c.07-.8.17-1.37.28-2l.35-1.75c.23-1.16.5-2.29.76-3.42L35,42.75c.15-.56.3-1.17.49-1.71.37-1.11.74-2.23,1.16-3.34A31.29,31.29,0,0,1,38,34.35a13.7,13.7,0,0,1,2.16-3.19,8.55,8.55,0,0,1,3.35-2.28l.48-.17.45-.13.79-.22c.53-.15,1-.33,1.56-.51A18.22,18.22,0,0,0,52.4,24.8a9.69,9.69,0,0,0,3.24-4.9A12.68,12.68,0,0,0,56,17,10,10,0,0,0,55.45,14a18.44,18.44,0,0,0-4-5.49,1.85,1.85,0,0,1,.22-3.09,3.24,3.24,0,0,1,3.82.53,1.37,1.37,0,0,1,.16.18Z"/><path class="cls-1" d="M61.88,45.42h1.37v5h3.08v1.23H61.88Z"/><path class="cls-1" d="M77.81,45.37h1.25l2.66,6.24H80.29l-.56-1.39H77.11l-.57,1.39H75.15ZM79.24,49l-.82-2-.83,2Z"/><path class="cls-1" d="M91,45.42h2.87a2.16,2.16,0,0,1,1.62.55A1.43,1.43,0,0,1,95.91,47v0a1.66,1.66,0,0,1-.07.47,1.11,1.11,0,0,1-.18.36,1.16,1.16,0,0,1-.25.29,1.6,1.6,0,0,1-.31.22,2,2,0,0,1,.84.55,1.38,1.38,0,0,1,.31,1v0a1.58,1.58,0,0,1-.16.74,1.49,1.49,0,0,1-.47.53,2.21,2.21,0,0,1-.73.32,4.07,4.07,0,0,1-1,.1H91Zm2.59,2.5a1.41,1.41,0,0,0,.71-.15.53.53,0,0,0,.27-.5v0a.54.54,0,0,0-.23-.47,1.11,1.11,0,0,0-.66-.17H92.32v1.31Zm.36,2.5a1.31,1.31,0,0,0,.71-.16.57.57,0,0,0,.26-.51v0a.58.58,0,0,0-.24-.49,1.3,1.3,0,0,0-.77-.18H92.32v1.36Z"/></svg>